<?xml version="1.0" encoding="UTF-8"?>
<svg width="250px" height="250px" viewBox="0 0 250 250" version="1.1" xmlns="http://www.w3.org/2000/svg" xmlns:xlink="http://www.w3.org/1999/xlink">
    <!-- Generator: Sketch 50.2 (55047) - http://www.bohemiancoding.com/sketch -->
    <title>imagen</title>
    <desc>Created with Sketch.</desc>
    <defs></defs>
    <g id="Page-1" stroke="none" stroke-width="1" fill="none" fill-rule="evenodd" opacity="0.239866395">
        <g id="imagen-destacada" transform="translate(-526.000000, -598.000000)" fill="#D8D8D8">
            <g id="descripciom" transform="translate(320.000000, 532.000000)">
                <path d="M330.995833,66 C261.965625,66 206,121.966558 206,191.002083 C206,260.034484 261.965625,316 330.995833,316 C400.027083,316 456,260.030317 456,191.002083 C455.995833,121.966558 400.027083,66 330.995833,66 Z M257,249.044406 L257,133.95043 C257,130.662768 259.683786,128 263.002603,128 L395.001562,128 C398.316214,128 401,130.662768 401,133.95043 L401,197.642029 L386.892947,197.642029 L386.892947,141.785868 L270.97276,141.785868 L270.97276,218.654969 L277.592695,218.654969 L304.342066,177.267411 L331.096643,218.654969 L338.794049,218.654969 L326.066366,198.966183 L334.361326,186.13573 L355.381886,218.654969 L363.855904,218.654969 L363.855904,247.704759 L383.368006,247.704759 L383.368006,255 L263.002603,255 C259.683786,254.995868 257,252.336199 257,249.044406 Z M377,167 C377,173.626866 371.624523,179 365.002515,179 C358.376483,179 353,173.626866 353,167 C353,160.373134 358.376483,155 365.002515,155 C371.624523,155 377,160.377159 377,167 Z M405.112567,238.117232 L405.112567,257 L391.886426,257 L391.886426,238.117232 L373,238.117232 L373,224.886799 L391.886426,224.886799 L391.886426,206 L405.116598,206 L405.116598,224.886799 L424,224.886799 L424,238.117232 L405.112567,238.117232 Z" id="imagen"></path>
            </g>
        </g>
    </g>
</svg>