<?xml version="1.0" encoding="UTF-8"?>
<svg width="114px" height="47px" viewBox="0 0 114 47" version="1.1" xmlns="http://www.w3.org/2000/svg" xmlns:xlink="http://www.w3.org/1999/xlink">
    <!-- Generator: Sketch 48.2 (47327) - http://www.bohemiancoding.com/sketch -->
    <title>logo nenemi</title>
    <desc>Created with Sketch.</desc>
    <defs>
        <polygon id="path-1" points="0.147866667 0.0650425532 1.92466667 0.0650425532 1.92466667 14.7286596 0.147866667 14.7286596"></polygon>
        <polygon id="path-3" points="0 0.23223837 45.7407723 0.23223837 45.7407723 47 0 47"></polygon>
    </defs>
    <g id="header" stroke="none" stroke-width="1" fill="none" fill-rule="evenodd" transform="translate(-30.000000, -12.000000)">
        <g id="Group-17-Copy-2">
            <g id="Group-5" transform="translate(30.000000, 12.000000)">
                <g id="logo-nenemi">
                    <path d="M57.623946,30.2590087 L57.623946,24.214914 C57.623946,22.7096338 57.1720067,21.4127372 55,21.4127372 C52.8282999,21.4127372 52.3766672,22.7096338 52.3766672,24.214914 L52.3766672,30.2590087 C52.3766672,30.6760994 52.0541162,31 51.6668711,31 C51.3013951,31 51,30.6760994 51,30.2590087 L51,24.214914 C51,22.014914 51.6668711,20 55,20 C58.311973,20 59,22.014914 59,24.214914 L59,30.2590087 C59,30.6760994 58.6992182,31 58.311973,31 C57.946497,31 57.623946,30.6760994 57.623946,30.2590087" id="Fill-1" fill="#D21F37"></path>
                    <path d="M66.6701742,21.3264292 C64.6975759,21.3264292 63.6096247,22.6068441 63.47355,24.6423426 L69.5720237,24.6423426 C69.5720237,22.9957297 69.0050997,21.3264292 66.6701742,21.3264292 M66.6701742,20 C70.2973245,20 71,22.90434 71,24.4595631 C71,25.1226179 71,25.9230769 70.093374,25.9230769 L63.47355,25.9230769 C63.47355,28.1870497 64.7657748,29.6508831 66.8967499,29.6508831 C68.2115999,29.6508831 68.9824744,29.1476005 69.6172742,28.6673251 C69.7530257,28.5759354 69.8438499,28.5302405 70.0251751,28.5302405 C70.3878255,28.5302405 70.6826001,28.8274169 70.6826001,29.1932954 C70.6826001,29.4450964 70.5691507,29.582181 70.4333992,29.7195852 C70.093374,30.0624564 68.9142755,31 66.8967499,31 C63.8814509,31 62,29.3306995 62,25.4884964 C62,21.9667964 63.7230742,20 66.6701742,20" id="Fill-3" fill="#D21F37"></path>
                    <path d="M78.6238933,30.2590087 L78.6238933,24.214914 C78.6238933,22.7096338 78.1722433,21.4127372 75.9998467,21.4127372 C73.8280633,21.4127372 73.3764133,22.7096338 73.3764133,24.214914 L73.3764133,30.2590087 C73.3764133,30.6760994 73.05385,31 72.66659,31 C72.3011,31 72,30.6760994 72,30.2590087 L72,24.214914 C72,22.014914 72.66659,20 75.9998467,20 C79.3119466,20 80,22.014914 80,24.214914 L80,30.2590087 C80,30.6760994 79.6992066,31 79.3119466,31 C78.9464566,31 78.6238933,30.6760994 78.6238933,30.2590087" id="Fill-5" fill="#D21F37"></path>
                    <path d="M87.6701742,21.3264292 C85.6975759,21.3264292 84.6096247,22.6068441 84.47355,24.6423426 L90.5720237,24.6423426 C90.5720237,22.9957297 90.0054229,21.3264292 87.6701742,21.3264292 M87.6701742,20 C91.2973245,20 92,22.90434 92,24.4595631 C92,25.1226179 92,25.9230769 91.093374,25.9230769 L84.47355,25.9230769 C84.47355,28.1870497 85.7657748,29.6508831 87.8967499,29.6508831 C89.2119231,29.6508831 89.9824744,29.1476005 90.6172742,28.6673251 C90.7533489,28.5759354 90.8438499,28.5302405 91.0254983,28.5302405 C91.3878255,28.5302405 91.6826001,28.8274169 91.6826001,29.1932954 C91.6826001,29.4450964 91.5691507,29.582181 91.4333992,29.7195852 C91.093374,30.0624564 89.9142755,31 87.8967499,31 C84.8814509,31 83,29.3306995 83,25.4884964 C83,21.9667964 84.7230742,20 87.6701742,20" id="Fill-7" fill="#D21F37"></path>
                    <g id="Group-11" transform="translate(112.000000, 16.000000)">
                        <mask id="mask-2" fill="white">
                            <use xlink:href="#path-1"></use>
                        </mask>
                        <g id="Clip-10"></g>
                        <path d="M1.78453333,13.9978085 C1.78453333,14.4091915 1.45753333,14.7286596 1.03653333,14.7286596 C0.615533333,14.7286596 0.2882,14.4091915 0.2882,13.9978085 L0.2882,4.72429787 C0.2882,4.31323404 0.615533333,3.99344681 1.03653333,3.99344681 C1.45753333,3.99344681 1.78453333,4.31323404 1.78453333,4.72429787 L1.78453333,13.9978085 Z M0.147866667,0.978446809 C0.147866667,0.316212766 0.4752,0.0650425532 1.03653333,0.0650425532 C1.59753333,0.0650425532 1.92486667,0.316212766 1.92486667,0.978446809 C1.92486667,1.52674468 1.59753333,1.84653191 1.03653333,1.84653191 C0.4752,1.84653191 0.147866667,1.52674468 0.147866667,0.978446809 Z" id="Fill-9" fill="#D21F37" mask="url(#mask-2)"></path>
                    </g>
                    <path d="M104.896452,20 C103.120533,20 102.083795,20.5442565 101.495911,21.3745551 C100.905511,20.5442565 99.8681429,20 98.1035481,20 C94.6841344,20 94,22.014914 94,24.2145904 L94,30.2590087 C94,30.6757758 94.3091973,31 94.6841344,31 C95.0814041,31 95.412305,30.6757758 95.412305,30.2590087 L95.412305,24.2145904 C95.412305,22.7096338 95.8753145,21.4127372 98.1035481,21.4127372 C100.276422,21.4127372 100.770886,22.6458891 100.794162,24.1029563 C100.793533,24.1401677 100.792904,24.177379 100.792904,24.2145904 L100.792904,30.2590087 C100.792904,30.6757758 101.101787,31 101.476724,31 C101.481127,31 101.484902,30.9987057 101.489305,30.9987057 C101.493395,30.9987057 101.496855,31 101.500944,31 C101.898213,31 102.207096,30.6757758 102.207096,30.2590087 L102.207096,24.2145904 C102.207096,24.1780262 102.206152,24.141462 102.205838,24.1048978 C102.229114,22.6468598 102.722949,21.4127372 104.896452,21.4127372 C107.124685,21.4127372 107.58801,22.7096338 107.58801,24.2145904 L107.58801,30.2590087 C107.58801,30.6757758 107.91891,31 108.293848,31 C108.690803,31 109,30.6757758 109,30.2590087 L109,24.2145904 C109,22.014914 108.293848,20 104.896452,20" id="Fill-12" fill="#D21F37"></path>
                    <path d="M17.7460714,23.5549154 C17.7612616,20.2061693 19.7330771,17.7119039 22.3703521,17.706058 C26.1594958,17.6979386 29.394036,20.7563367 29.341032,24.2979986 C29.2977238,27.2060262 26.5386041,29.534332 23.2148619,29.4677533 C19.6012134,29.3953287 17.7282956,27.3706867 17.7460714,23.5549154 M30.7162287,26.254438 C31.8257587,22.7926705 29.5679152,18.3078645 25.9258255,16.7395302 C21.0620569,14.6453866 16.7263897,17.148096 16.0964817,22.3610457 C15.7396739,25.3106444 16.3424335,26.970565 18.4092685,29.406371 C19.3193869,30.2053153 20.7020171,30.6171289 21.8826502,30.8447956 C25.761319,31.5934 29.6548548,29.564536 30.7162287,26.254438" id="Fill-14" fill="#E98923"></path>
                    <path d="M21.6771963,23.5436885 C21.7434479,22.0469681 22.4232472,21.0302977 23.8964656,20.9727684 C25.2106161,21.152068 26.4412319,21.3307284 26.3240913,22.8961643 C26.207911,24.4484964 25.084834,25.2484731 23.6855486,25.360016 C22.5848755,25.4475884 21.6170258,24.903617 21.6771963,23.5436885 M27.9999053,22.8495017 C28.0143078,20.7528787 26.384582,19.0736626 24.2661304,19.0020706 C21.960446,18.9237668 20.0321078,21.0769603 20.0004222,23.666098 C19.9674564,26.3197963 21.8705102,26.7995267 23.7585214,26.9868165 C25.8414467,27.1932827 27.9858228,24.9371757 27.9999053,22.8495017" id="Fill-16" fill="#D21F37"></path>
                    <path d="M34.4384067,29.1083894 C32.7542739,33.0350548 29.3378168,33.8357572 25.7472277,34.2160827 C22.1640279,34.7416352 16.9304294,33.5374882 14.5266367,30.6853726 C11.4655116,27.0530687 12.4756058,22.9570803 14.0183768,19.1381955 C16.9837614,11.8003229 22.1621003,9.91106905 29.3413508,13.1965864 C34.4560769,15.5371512 36.9597868,23.2292996 34.4384067,29.1083894 M26.0550108,10.3350278 C18.43786,8.70073525 13.2759062,13.0725248 11.2663201,22.8600452 C9.97639384,29.1416027 13.4445765,34.535517 20.1017524,35.6279759 C28.3839461,36.9871186 35.6814265,34.7325178 36.6240525,27.0367876 C38.330996,18.7135855 34.1245193,12.0663554 26.0550108,10.3350278" id="Fill-18" fill="#4C84C4"></path>
                    <path d="M23.9002874,31.4489915 C22.2369478,31.3198963 20.2719681,31.0756965 18.4515709,29.8890384 C13.673948,27.0797873 14.5139344,19.4927427 19.4482951,16.1197336 C22.6361493,13.940696 25.9817009,13.9543686 28.8653559,16.1582078 C31.9415744,18.5086304 33.3208667,23.1722733 32.0672845,26.982171 C31.2308166,29.5240106 27.4185704,31.7214904 23.9002874,31.4489915 M29.0524816,32.027694 C33.7514158,29.6352996 34.493841,27.39553 33.7517356,21.0177193 C33.2613704,16.80114 29.3509231,13.4945863 25.2197634,13.0659649 C20.5867231,12.5855146 17.0278162,14.7403866 15.1280906,19.1760461 C12.0409964,26.3862982 15.4706745,32.2439125 23.2074425,32.9714243 C24.1411517,33.0591836 27.2039356,32.9774657 28.6001812,32.2579031 C29.7235751,31.6718873 29.0524816,32.027694 29.0524816,32.027694" id="Fill-20" fill="#EEB81C"></path>
                    <g id="Group-24">
                        <mask id="mask-4" fill="white">
                            <use xlink:href="#path-3"></use>
                        </mask>
                        <g id="Clip-23"></g>
                        <path d="M23.7002294,39.2718292 C14.3519357,39.8217944 6.51971189,34.3224681 6.51971189,24.4603014 C6.51971189,14.5981347 14.3844252,5.47262778 23.7475161,5.47262778 C33.1109287,5.47262778 40.4268587,14.5981347 40.4268587,24.4603014 C40.4268587,34.3224681 32.6872783,38.7430792 23.7002294,39.2718292 M25.9500476,0.260197222 C7.7794042,1.17832917 0.865893706,7.42475972 0.0263132867,23.8901 C-0.587448951,35.9266694 9.62101259,46.7598431 21.5597818,46.9925583 C34.894635,47.2520375 45.9494322,40.7787667 45.7261874,22.2398778 C46.1279636,9.36775278 38.1963413,-0.358636111 25.9500476,0.260197222" id="Fill-22" fill="#D21F37" mask="url(#mask-4)"></path>
                    </g>
                </g>
            </g>
        </g>
    </g>
</svg>