<svg aria-hidden="true" style="position: absolute; width: 0; height: 0; overflow: hidden;" version="1.1" xmlns="http://www.w3.org/2000/svg" xmlns:xlink="http://www.w3.org/1999/xlink">
<defs>
<symbol id="icon-border-all" viewBox="0 0 20 20">
<title>border-all</title>
<path d="M11 11v6h6v-6h-6zM11 9h6v-6h-6v6zM9 11h-6v6h6v-6zM9 9v-6h-6v6h6zM1 18v-17h18v18h-18v-1z"></path>
</symbol>
<symbol id="icon-chat-bubble-dots" viewBox="0 0 20 20">
<title>chat-bubble-dots</title>
<path d="M10 15l-4 4v-4h-4c-1.105 0-2-0.895-2-2v0-10c0-1.1 0.9-2 2-2h16c1.105 0 2 0.895 2 2v0 10c0 1.105-0.895 2-2 2v0h-8zM5 7v2h2v-2h-2zM9 7v2h2v-2h-2zM13 7v2h2v-2h-2z"></path>
</symbol>
<symbol id="icon-pin" viewBox="0 0 20 20">
<title>pin</title>
<path d="M11 12h6v-1l-3-1v-8l3-1v-1h-14v1l3 1v8l-3 1v1h6v7l1 1 1-1v-7z"></path>
</symbol>
<symbol id="icon-inbox-check" viewBox="0 0 20 20">
<title>inbox-check</title>
<path d="M0 2c0-1.1 0.9-2 2-2h16c1.105 0 2 0.895 2 2v0 16c0 1.105-0.895 2-2 2v0h-16c-1.105 0-2-0.895-2-2v0-16zM14 14h4v-12h-16v12h4c0 1.1 0.9 2 2 2h4c1.105 0 2-0.895 2-2v0zM5 9l2-2 2 2 4-4 2 2-6 6-4-4z"></path>
</symbol>
<symbol id="icon-ticket" viewBox="0 0 20 20">
<title>ticket</title>
<path d="M20 12v5h-20v-5c1.105 0 2-0.895 2-2s-0.895-2-2-2v0-5h20v5c-1.105 0-2 0.895-2 2s0.895 2 2 2v0zM3 5v10h14v-10h-14zM10 12.080l-2.92 2.040 1.020-3.42-2.83-2.14 3.56-0.080 1.17-3.36 1.17 3.36 3.56 0.080-2.84 2.15 1.030 3.4-2.92-2.020z"></path>
</symbol>
<symbol id="icon-check-rounded" viewBox="0 0 32 32">
<title>check-rounded</title>
<path d="M16 0c-8.822 0-16 7.178-16 16s7.178 16 16 16c8.822 0 16-7.178 16-16s-7.178-16-16-16zM16 29.421c-7.401 0-13.421-6.021-13.421-13.422s6.021-13.421 13.421-13.421 13.421 6.021 13.421 13.422c0 7.401-6.021 13.421-13.421 13.421z"></path>
<path d="M21.572 10.588l-7.661 7.424-2.803-2.717c-0.516-0.501-1.354-0.501-1.87 0s-0.517 1.312 0 1.812l3.738 3.623c0.258 0.25 0.597 0.376 0.935 0.376s0.677-0.125 0.935-0.376l8.596-8.33c0.516-0.501 0.516-1.312 0-1.813s-1.354-0.5-1.87 0z"></path>
</symbol>
<symbol id="icon-cost-rounded" viewBox="0 0 31 32">
<title>cost-rounded</title>
<path d="M16.248 14.746c-1.75-0.72-2.255-1.155-2.255-1.941 0-0.629 0.464-1.363 1.773-1.363 1.158 0 2.046 0.468 2.054 0.472 0.093 0.051 0.198 0.078 0.302 0.078 0.253 0 0.477-0.157 0.57-0.401l0.318-0.834c0.111-0.304-0.057-0.569-0.271-0.664-0.713-0.318-2.106-0.565-2.12-0.567-0.022-0.004-0.101-0.021-0.101-0.115l-0.004-1.21c0-0.364-0.297-0.661-0.661-0.661h-0.571c-0.364 0-0.66 0.296-0.66 0.661l0.002 1.272c0 0.098-0.103 0.14-0.141 0.149-1.759 0.43-2.858 1.751-2.858 3.418 0 2.078 1.674 3.017 3.482 3.722 1.445 0.582 2.035 1.172 2.035 2.038 0 0.942-0.835 1.6-2.031 1.6-1.022 0-2.404-0.664-2.418-0.671-0.088-0.043-0.182-0.065-0.279-0.065-0.263 0-0.492 0.163-0.584 0.416l-0.304 0.843c-0.108 0.315 0.058 0.571 0.271 0.684 0.849 0.454 2.492 0.719 2.565 0.731 0.020 0.003 0.12 0.039 0.12 0.133v1.266c0 0.364 0.297 0.661 0.661 0.661h0.59c0.364 0 0.661-0.296 0.661-0.661v-1.333c0-0.125 0.090-0.136 0.108-0.14 1.874-0.432 3.028-1.838 3.028-3.603-0-1.814-0.982-2.985-3.282-3.917z"></path>
<path d="M15.512 0.086c-8.552 0-15.485 7.112-15.485 15.885s6.933 15.885 15.485 15.885c8.552 0 15.485-7.112 15.485-15.885s-6.933-15.885-15.485-15.885zM15.512 28.174c-6.57 0-11.896-5.464-11.896-12.203s5.326-12.203 11.896-12.203c6.57 0 11.896 5.464 11.896 12.203s-5.326 12.203-11.896 12.203z"></path>
</symbol>
<symbol id="icon-processed" viewBox="0 0 32 32">
<title>processed</title>
<path d="M14.298 4.343v-2.565c0-0.982 0.763-1.778 1.702-1.778s1.702 0.797 1.702 1.778v2.565c0 0.982-0.763 1.784-1.702 1.784s-1.702-0.803-1.702-1.784z"></path>
<path d="M14.298 30.215v-2.564c0-0.982 0.763-1.779 1.702-1.779s1.702 0.797 1.702 1.779v2.564c0 0.982-0.763 1.785-1.702 1.785s-1.702-0.803-1.702-1.785z"></path>
<path d="M22.928 9.071c-0.613-0.615-0.613-1.62 0-2.234l1.608-1.61c0.62-0.615 1.617-0.615 2.237 0 0.615 0.621 0.615 1.619 0 2.234l-1.612 1.61c-0.308 0.307-0.712 0.46-1.117 0.46s-0.803-0.153-1.117-0.46z"></path>
<path d="M4.546 27.453c-0.615-0.614-0.615-1.614 0-2.234l1.607-1.608c0.62-0.615 1.619-0.615 2.237 0 0.615 0.619 0.615 1.619 0 2.234l-1.612 1.608c-0.308 0.308-0.712 0.462-1.117 0.462-0.404 0-0.809-0.154-1.115-0.462z"></path>
<path d="M27.651 17.702c-0.982 0-1.778-0.763-1.778-1.702s0.797-1.702 1.778-1.702h2.571c0.982 0 1.778 0.768 1.778 1.702 0 0.94-0.797 1.702-1.778 1.702h-2.571z"></path>
<path d="M1.778 17.702c-0.982 0-1.778-0.763-1.778-1.702s0.797-1.702 1.778-1.702h2.565c0.982 0 1.784 0.768 1.784 1.702 0 0.94-0.803 1.702-1.784 1.702h-2.565z"></path>
<path d="M24.536 27.453l-1.608-1.608c-0.613-0.615-0.613-1.615 0.005-2.234 0.615-0.615 1.613-0.615 2.228 0l1.612 1.608c0.615 0.621 0.615 1.62 0 2.234-0.312 0.308-0.717 0.462-1.121 0.462-0.4 0-0.805-0.154-1.117-0.462z"></path>
<path d="M6.153 9.071l-1.607-1.61c-0.615-0.615-0.615-1.619 0-2.234 0.613-0.615 1.617-0.615 2.232 0l1.612 1.61c0.615 0.614 0.615 1.619 0 2.234-0.312 0.307-0.717 0.46-1.115 0.46-0.41 0-0.809-0.153-1.122-0.46z"></path>
</symbol>
<symbol id="icon-card" viewBox="0 0 40 32">
<title>card</title>
<path d="M39.43 0.979c-0.659-0.653-1.452-0.979-2.378-0.979h-33.683c-0.926 0-1.72 0.326-2.38 0.979s-0.989 1.437-0.989 2.355v25.332c0 0.918 0.329 1.702 0.989 2.355s1.453 0.979 2.38 0.979h33.683c0.926 0 1.72-0.326 2.378-0.979 0.66-0.653 0.991-1.437 0.991-2.355v-25.332c0-0.918-0.331-1.702-0.991-2.355zM37.726 28.667c0 0.18-0.067 0.336-0.201 0.468-0.132 0.132-0.29 0.197-0.473 0.197h-33.683c-0.183 0-0.341-0.066-0.474-0.197-0.132-0.132-0.199-0.289-0.199-0.47v-12.666h35.031v12.667zM37.726 8h-35.031v-4.667c0-0.18 0.066-0.336 0.199-0.468s0.291-0.197 0.474-0.197h33.683c0.183 0 0.341 0.065 0.473 0.197 0.134 0.132 0.201 0.289 0.201 0.468v4.667z"></path>
<path d="M5.053 26.947h5.053v-1.684h-5.053z"></path>
<path d="M13.474 26.947h8.421v-1.684h-8.421z"></path>
</symbol>
<symbol id="icon-wechat" viewBox="0 0 38 32">
<title>wechat</title>
<path d="M21.826 1.997c3.014 1.673 5.417 4.571 6.114 7.998-3.729-0.264-7.649 0.832-10.413 3.427-1.642 1.494-2.83 3.509-3.206 5.71-0.236 1.587-0.113 3.225 0.405 4.745-1.985 0.064-3.972-0.227-5.864-0.834-1.568 0.834-3.124 1.689-4.699 2.509 0.435-1.375 0.897-2.741 1.366-4.106-2.49-1.656-4.535-4.134-5.228-7.093-0.693-2.665-0.155-5.569 1.278-7.898 1.58-2.583 4.14-4.479 6.966-5.5 4.302-1.558 9.284-1.217 13.282 1.040zM11.111 8.214c0.421-1.447-1.17-2.872-2.568-2.331-1.429 0.428-1.769 2.562-0.554 3.421 1.049 0.9 2.844 0.252 3.123-1.090zM20.821 7.824c0.097-1.359-1.39-2.423-2.648-1.927-1.407 0.435-1.746 2.528-0.548 3.386 1.155 1.050 3.209 0.086 3.197-1.459zM32.778 12.146c2.136 1.086 3.978 2.841 4.954 5.057 1.051 2.343 0.979 5.163-0.213 7.441-0.802 1.636-2.135 2.935-3.597 3.982 0.387 1.116 0.744 2.243 1.079 3.374-1.306-0.627-2.512-1.476-3.858-2.002-2.247 0.656-4.639 0.932-6.954 0.461-3.196-0.58-6.267-2.384-7.968-5.211-1.141-1.884-1.601-4.208-1.089-6.367 0.622-2.934 2.803-5.344 5.418-6.69 3.76-1.95 8.454-1.964 12.227-0.045zM24.601 18.049c0.517-1.181-0.841-2.542-2.020-2.044-1.061 0.328-1.376 1.871-0.566 2.607 0.732 0.799 2.255 0.483 2.587-0.564zM32.287 18.195c0.601-1.031-0.409-2.431-1.56-2.274-0.832 0.033-1.32 0.797-1.5 1.531 0.135 0.408 0.217 0.869 0.554 1.173 0.695 0.729 2.104 0.512 2.507-0.431z"></path>
</symbol>
<symbol id="icon-facebook" viewBox="0 0 18 32">
<title>facebook</title>
<path d="M17.324 0.006l-4.318-0.006c-4.85 0-7.986 3.091-7.986 7.875v3.632h-4.342c-0.374 0-0.678 0.291-0.678 0.652v5.262c0 0.359 0.304 0.652 0.678 0.652h4.342v13.276c0 0.359 0.304 0.652 0.68 0.652h5.662c0.375 0 0.68-0.293 0.68-0.652v-13.276h5.076c0.375 0 0.678-0.293 0.678-0.652l0.003-5.262c0-0.172-0.073-0.338-0.2-0.462-0.127-0.122-0.299-0.19-0.48-0.19h-5.077v-3.079c0-1.479 0.367-2.231 2.371-2.231l2.909-0.002c0.375 0 0.678-0.293 0.678-0.652v-4.885c0-0.361-0.303-0.652-0.676-0.654z"></path>
</symbol>
<symbol id="icon-arrow-left" viewBox="0 0 19 32">
<title>arrow-left</title>
<path d="M18.022 31.52c0.336-0.32 0.505-0.719 0.505-1.146s-0.168-0.853-0.505-1.146l-13.93-13.216 13.93-13.242c0.673-0.639 0.673-1.652 0-2.291-0.336-0.32-0.757-0.48-1.205-0.48s-0.897 0.16-1.205 0.48l-15.107 14.361c-0.336 0.32-0.504 0.719-0.504 1.146s0.196 0.853 0.504 1.146l15.107 14.361c0.308 0.32 0.757 0.506 1.205 0.506s0.869-0.16 1.205-0.48z"></path>
</symbol>
<symbol id="icon-cancelation" viewBox="0 0 33 32">
<title>cancelation</title>
<path d="M15.437 20.742c-0.772-0.221-1.462-0.624-1.945-1.137-0.209-0.221-0.486-0.343-0.782-0.343s-0.573 0.122-0.782 0.344l-0.085 0.090c-0.208 0.221-0.326 0.527-0.324 0.84s0.125 0.617 0.337 0.835c0.942 0.969 2.272 1.669 3.65 1.922l0.133 0.024v1.109c0 0.648 0.496 1.175 1.106 1.175h0.125c0.61 0 1.106-0.527 1.106-1.175v-1.135l0.131-0.026c2.287-0.462 3.652-1.98 3.652-4.059 0.020-2.827-1.951-3.858-3.671-4.442l-0.112-0.038v-3.807l0.195 0.045c0.507 0.118 0.959 0.298 1.309 0.521 0.172 0.109 0.368 0.167 0.568 0.167 0.384 0 0.735-0.206 0.939-0.552l0.056-0.095c0.156-0.265 0.206-0.591 0.138-0.894s-0.252-0.571-0.503-0.733c-0.705-0.453-1.616-0.787-2.565-0.942l-0.136-0.022v-0.839c0-0.648-0.496-1.175-1.106-1.175h-0.125c-0.61 0-1.106 0.527-1.106 1.175v0.901l-0.129 0.028c-2.113 0.453-3.375 1.861-3.375 3.766 0 2.040 1.11 3.431 3.395 4.253l0.109 0.039v4.238l-0.203-0.058zM17.977 17.355l0.226 0.105c0.896 0.418 1.227 0.886 1.22 1.73 0 0.703-0.415 1.205-1.235 1.491l-0.211 0.073-0-3.399zM15.403 13.763c-0.669-0.38-0.93-0.799-0.93-1.494 0-0.528 0.32-0.922 0.95-1.168l0.216-0.085v2.881l-0.237-0.134z"></path>
<path d="M32.877 5.699c-0.339-0.266-0.809-0.305-1.189-0.1l-2.261 1.22c-2.814-4.235-7.62-6.819-12.834-6.819-8.443 0-15.312 6.729-15.312 15.001 0 0.905 0.749 1.639 1.673 1.639s1.673-0.734 1.673-1.639c0-6.463 5.368-11.722 11.965-11.722 3.991 0 7.677 1.937 9.893 5.127l-2.118 1.143c-0.381 0.205-0.598 0.615-0.549 1.038s0.351 0.776 0.769 0.895l5.675 1.611c0.098 0.028 0.199 0.042 0.299 0.042 0.18 0 0.358-0.044 0.518-0.13 0.249-0.135 0.434-0.361 0.514-0.629l1.645-5.56c0.121-0.409-0.022-0.849-0.361-1.115z"></path>
<path d="M30.327 15.36c-0.924 0-1.674 0.734-1.674 1.639 0 6.464-5.368 11.722-11.966 11.722-3.991 0-7.677-1.937-9.893-5.127l2.118-1.143c0.381-0.205 0.598-0.615 0.549-1.038s-0.351-0.776-0.769-0.895l-5.675-1.611c-0.098-0.028-0.199-0.042-0.299-0.042-0.18 0-0.358 0.044-0.518 0.131-0.25 0.135-0.434 0.361-0.514 0.629l-1.645 5.56c-0.121 0.409 0.021 0.849 0.361 1.115s0.809 0.306 1.189 0.1l2.261-1.22c2.813 4.235 7.62 6.819 12.834 6.819 8.443 0 15.313-6.729 15.313-15.001 0-0.905-0.749-1.639-1.673-1.639z"></path>
</symbol>
<symbol id="icon-guide" viewBox="0 0 27 32">
<title>guide</title>
<path d="M25.926 3.168h-0.676v-0.634c-0-1.397-1.119-2.534-2.494-2.534h-18.083c-1.375 0-2.494 1.137-2.494 2.534v0.634h-0.676c-0.829 0-1.503 0.685-1.503 1.527v7.335c0 0.842 0.674 1.527 1.503 1.527h0.676v13.071c0 1.158 0.769 2.136 1.815 2.438v2.195c0 0.408 0.326 0.739 0.727 0.739h3.025c0.402 0 0.727-0.331 0.727-0.739v-2.099h10.482v2.099c0 0.408 0.326 0.739 0.727 0.739h3.025c0.402 0 0.727-0.331 0.727-0.739v-2.195c1.046-0.301 1.815-1.28 1.815-2.438v-13.071h0.676c0.829 0 1.503-0.685 1.503-1.527v-7.335c0-0.842-0.674-1.527-1.503-1.527zM5.253 4.492h16.924v9.38h-16.924v-9.38zM8.043 25.788c-1.446 0-2.618-1.191-2.618-2.66s1.172-2.66 2.618-2.66c1.446 0 2.618 1.191 2.618 2.66s-1.172 2.66-2.618 2.66zM16.768 23.128c0-1.469 1.172-2.66 2.618-2.66s2.618 1.191 2.618 2.66-1.172 2.66-2.618 2.66c-1.446 0-2.618-1.191-2.618-2.66z"></path>
</symbol>
<symbol id="icon-language" viewBox="0 0 32 32">
<title>language</title>
<path d="M16 0c-8.822 0-16 7.178-16 16s7.178 16 16 16 16-7.177 16-16c0-8.822-7.178-16-16-16zM28.144 11.855c-0.618-0.404-1.336-0.775-2.149-1.105-0.798-0.324-1.67-0.604-2.6-0.839-0.337-1.479-0.799-2.847-1.375-4.049-0.287-0.599-0.597-1.145-0.928-1.639 3.297 1.431 5.88 4.207 7.053 7.632zM16 27.644c-0.996 0-2.119-1.103-3.005-2.951-0.288-0.6-0.541-1.255-0.759-1.954 1.213 0.137 2.477 0.209 3.764 0.209s2.551-0.071 3.764-0.209c-0.218 0.699-0.472 1.354-0.759 1.954-0.885 1.848-2.008 2.951-3.004 2.951zM16 19.87c-1.557 0-3.065-0.112-4.468-0.326-0.159-1.132-0.242-2.322-0.242-3.543s0.083-2.412 0.242-3.543c1.403-0.214 2.911-0.326 4.468-0.326s3.065 0.112 4.468 0.326c0.159 1.132 0.242 2.322 0.242 3.543s-0.082 2.412-0.242 3.543c-1.403 0.214-2.911 0.326-4.468 0.326zM8.074 18.734c-0.315-0.105-0.619-0.217-0.911-0.335-2.031-0.825-2.94-1.799-2.94-2.398s0.909-1.574 2.94-2.399c0.291-0.118 0.595-0.23 0.911-0.335-0.084 0.893-0.127 1.807-0.127 2.734s0.043 1.841 0.127 2.734zM16 4.355c0.996 0 2.119 1.103 3.005 2.951 0.288 0.6 0.541 1.255 0.759 1.954-1.213-0.137-2.477-0.209-3.764-0.209s-2.551 0.071-3.764 0.209c0.218-0.699 0.472-1.354 0.759-1.954 0.885-1.848 2.008-2.951 3.004-2.951zM23.926 13.266c0.315 0.105 0.619 0.217 0.911 0.335 2.031 0.825 2.94 1.799 2.94 2.399s-0.909 1.574-2.94 2.398c-0.291 0.118-0.595 0.23-0.911 0.335 0.084-0.893 0.127-1.807 0.127-2.734s-0.043-1.841-0.127-2.734zM10.909 4.223c-0.331 0.494-0.642 1.040-0.928 1.639-0.576 1.202-1.038 2.57-1.375 4.049-0.93 0.235-1.803 0.515-2.6 0.839-0.813 0.33-1.531 0.701-2.149 1.105 1.172-3.425 3.756-6.201 7.053-7.632zM3.856 20.145c0.618 0.404 1.336 0.775 2.149 1.105 0.797 0.324 1.67 0.604 2.6 0.839 0.337 1.479 0.799 2.847 1.375 4.049 0.287 0.599 0.597 1.145 0.928 1.639-3.297-1.431-5.88-4.207-7.053-7.632zM21.091 27.777c0.331-0.494 0.641-1.040 0.928-1.639 0.576-1.202 1.038-2.57 1.375-4.049 0.93-0.235 1.803-0.515 2.6-0.839 0.813-0.33 1.531-0.701 2.149-1.105-1.172 3.425-3.756 6.201-7.053 7.632z"></path>
</symbol>
<symbol id="icon-traveler" viewBox="0 0 12 32">
<title>traveler</title>
<path d="M9.778 4c0-2.209-1.791-4-4-4s-4 1.791-4 4c0 2.209 1.791 4 4 4s4-1.791 4-4z"></path>
<path d="M10.981 8.889h-9.517c-0.408 0-0.797 0.171-1.074 0.47s-0.417 0.702-0.386 1.11l0.676 8.798c0.029 0.375 0.2 0.725 0.479 0.977l1.54 1.393v8.897c0 0.811 0.656 1.467 1.464 1.467h0.641c0.683 0 1.256-0.468 1.418-1.102 0.162 0.634 0.736 1.102 1.418 1.102h0.641c0.809 0 1.464-0.657 1.464-1.467v-8.897l1.54-1.393c0.279-0.252 0.45-0.602 0.479-0.977l0.675-8.798c0.031-0.407-0.108-0.81-0.386-1.11s-0.666-0.47-1.073-0.47z"></path>
</symbol>
<symbol id="icon-voucher" viewBox="0 0 32 32">
<title>voucher</title>
<path d="M31.719 12.116l-2.917-2.917c-0.347-0.347-0.9-0.376-1.281-0.067-1.318 1.069-3.218 0.968-4.42-0.234s-1.302-3.102-0.234-4.42c0.309-0.381 0.28-0.934-0.067-1.281l-2.917-2.917c-0.374-0.374-0.981-0.374-1.355 0l-18.248 18.248c-0.374 0.374-0.374 0.981 0 1.355l2.917 2.917c0 0 0.001 0.001 0.001 0.001 0.374 0.374 0.981 0.374 1.355 0 0.035-0.035 0.067-0.072 0.095-0.11 0.065-0.078 0.134-0.154 0.205-0.225 1.29-1.29 3.389-1.29 4.68-0s1.29 3.39-0 4.68c-0.081 0.081-0.169 0.16-0.26 0.234-0.211 0.171-0.339 0.424-0.354 0.694s0.087 0.535 0.279 0.727l2.917 2.917c0.374 0.374 0.981 0.374 1.355 0l18.248-18.248c0.374-0.374 0.374-0.981 0-1.355zM19.397 18.185c0 0.075-0.037 0.145-0.098 0.189-0.040 0.028-0.087 0.043-0.134 0.043-0.026 0-0.051-0.004-0.076-0.013l-2.979-1.038c-0.027 0.928-0.104 1.784-0.221 2.466-0.021 0.124-0.044 0.24-0.067 0.349l1.551 0.862c0.040 0.022 0.065 0.064 0.065 0.11v0.525c0 0.041-0.020 0.079-0.053 0.103-0.022 0.015-0.047 0.023-0.073 0.023-0.014 0-0.028-0.002-0.041-0.007l-1.813-0.632c-0.083 0.105-0.197 0.193-0.349 0.193s-0.266-0.088-0.35-0.193l-1.813 0.632c-0.039 0.013-0.081 0.007-0.114-0.016s-0.053-0.062-0.053-0.103v-0.525c0-0.046 0.025-0.088 0.065-0.11l1.551-0.862c-0.023-0.109-0.046-0.225-0.067-0.349-0.117-0.682-0.193-1.538-0.221-2.466l-2.979 1.038c-0.071 0.025-0.149 0.014-0.21-0.030s-0.097-0.114-0.097-0.189v-0.966c0-0.084 0.046-0.162 0.119-0.203l0.673-0.374v-0.304c0-0.205 0.166-0.371 0.37-0.371 0.17 0 0.313 0.115 0.357 0.271l0.566-0.315v-0.28c0-0.205 0.166-0.371 0.37-0.371 0.163 0 0.3 0.105 0.35 0.25l0.502-0.279c0.037-0.719 0.105-1.379 0.199-1.926 0.075-0.434 0.163-0.779 0.262-1.023 0.050-0.124 0.204-0.502 0.519-0.502s0.468 0.378 0.519 0.502c0.099 0.245 0.187 0.589 0.262 1.023 0.094 0.547 0.162 1.207 0.199 1.926l0.502 0.279c0.050-0.146 0.188-0.25 0.35-0.25 0.205 0 0.371 0.166 0.371 0.371v0.28l0.566 0.315c0.044-0.156 0.187-0.271 0.357-0.271 0.205 0 0.37 0.166 0.37 0.371v0.304l0.673 0.374c0.073 0.041 0.119 0.118 0.119 0.203v0.966h-0zM25.681 15.631c-0.39 0.39-1.023 0.39-1.413 0l-7.899-7.899c-0.39-0.39-0.39-1.023 0-1.413s1.023-0.39 1.413 0l7.899 7.899c0.39 0.39 0.39 1.023-0 1.413z"></path>
</symbol>
<symbol id="icon-arrow-left-rounded" viewBox="0 0 32 32">
<title>arrow-left-rounded</title>
<path d="M9.112 14.819l9.034-9.034c0.296-0.316 0.726-0.497 1.181-0.497 0.441 0 0.857 0.174 1.172 0.489 0.646 0.647 0.646 1.699 0 2.345l-7.886 7.886 7.877 7.862c0.316 0.296 0.497 0.725 0.497 1.181 0 0.441-0.174 0.857-0.489 1.172s-0.732 0.489-1.172 0.489c-0.446 0-0.875-0.187-1.181-0.514l-9.034-9.034c-0.311-0.311-0.489-0.738-0.489-1.173 0-0.441 0.174-0.857 0.489-1.172zM16 32c8.837 0 16-7.163 16-16s-7.163-16-16-16c-8.837 0-16 7.163-16 16s7.163 16 16 16z"></path>
</symbol>
<symbol id="icon-pencil" viewBox="0 0 32 32">
<title>pencil</title>
<path d="M30.873 9.304l-1.363 1.363-8.177-8.174 1.363-1.363c1.505-1.505 3.946-1.505 5.452 0l2.725 2.725c1.503 1.504 1.503 3.944 0 5.449zM10.968 26.685c-0.402 0.402-0.402 1.054 0 1.456 0.402 0.404 1.054 0.404 1.456 0l16.020-16.017-1.458-1.457-16.018 16.019zM3.857 19.575c-0.402 0.403-0.402 1.054 0 1.456s1.054 0.402 1.456 0l16.020-16.020-1.456-1.456-16.020 16.020zM21.972 7.111l-16.035 16.035c-0.805 0.804-0.803 2.11 0 2.915 0.806 0.805 2.11 0.809 2.917-0.002l16.035-16.032-2.917-2.916zM8.768 29.681c-0.436-0.436-0.647-0.988-0.725-1.557-0.185 0.029-0.372 0.055-0.563 0.055-0.975 0-1.89-0.38-2.58-1.068-0.69-0.69-1.069-1.601-1.069-2.573 0-0.177 0.027-0.35 0.052-0.522-0.59-0.080-1.135-0.338-1.563-0.764-0.041-0.041-0.055-0.096-0.093-0.14l-2.227 8.889 8.889-2.219c-0.039-0.036-0.084-0.062-0.121-0.099z"></path>
</symbol>
<symbol id="icon-arrow-right" viewBox="0 0 19 32">
<title>arrow-right</title>
<path d="M0.504 0.48c-0.336 0.32-0.504 0.719-0.504 1.146s0.168 0.853 0.504 1.146l13.93 13.216-13.93 13.242c-0.673 0.639-0.673 1.652 0 2.291 0.336 0.32 0.757 0.48 1.205 0.48s0.897-0.16 1.205-0.48l15.107-14.361c0.336-0.32 0.505-0.719 0.505-1.146s-0.196-0.853-0.505-1.146l-15.107-14.361c-0.308-0.32-0.757-0.506-1.205-0.506s-0.869 0.16-1.205 0.48z"></path>
</symbol>
<symbol id="icon-arrow-up" viewBox="0 0 57 32">
<title>arrow-up</title>
<path d="M4.069 30.925c0.732 0 1.421-0.285 1.939-0.803l22.275-22.319 22.32 22.32c1.069 1.069 2.807 1.069 3.876 0 0.518-0.517 0.802-1.206 0.802-1.938s-0.285-1.421-0.802-1.938l-24.214-24.214c-0.525-0.525-1.195-0.802-1.938-0.802-0.722 0-1.428 0.292-1.938 0.802l-24.194 24.195c-0.544 0.512-0.85 1.2-0.861 1.938s0.271 1.433 0.796 1.957c0.517 0.518 1.206 0.802 1.938 0.802z"></path>
</symbol>
<symbol id="icon-calendar" viewBox="0 0 32 32">
<title>calendar</title>
<path d="M10.855 17.098c0-0.381-0.309-0.689-0.69-0.689h-2.407c-0.381 0-0.689 0.308-0.689 0.689v2.407c0 0.381 0.309 0.69 0.689 0.69h2.407c0.381 0 0.69-0.309 0.69-0.69v-2.407z"></path>
<path d="M17.166 17.098c0-0.381-0.309-0.689-0.689-0.689h-2.408c-0.381 0-0.69 0.308-0.69 0.689v2.407c0 0.381 0.309 0.69 0.69 0.69h2.408c0.38 0 0.689-0.309 0.689-0.69v-2.407z"></path>
<path d="M23.225 17.098c0-0.381-0.309-0.689-0.689-0.689h-2.407c-0.381 0-0.69 0.308-0.69 0.689v2.407c0 0.381 0.309 0.69 0.69 0.69h2.407c0.381 0 0.689-0.309 0.689-0.69v-2.407z"></path>
<path d="M10.855 23.41c0-0.381-0.309-0.69-0.69-0.69h-2.407c-0.381 0-0.689 0.308-0.689 0.69v2.407c0 0.381 0.309 0.69 0.689 0.69h2.407c0.381 0 0.69-0.309 0.69-0.69v-2.407z"></path>
<path d="M17.166 23.41c0-0.381-0.309-0.69-0.689-0.69h-2.408c-0.381 0-0.69 0.308-0.69 0.69v2.407c0 0.381 0.309 0.69 0.69 0.69h2.408c0.38 0 0.689-0.309 0.689-0.69v-2.407z"></path>
<path d="M23.225 23.41c0-0.381-0.309-0.69-0.689-0.69h-2.408c-0.381 0-0.69 0.308-0.69 0.69v2.407c0 0.381 0.309 0.69 0.69 0.69h2.408c0.38 0 0.689-0.309 0.689-0.69v-2.407z"></path>
<path d="M27.827 3.548v3.778c0 1.708-1.386 3.084-3.093 3.084h-1.951c-1.708 0-3.112-1.376-3.112-3.084v-3.792h-8.795v3.792c0 1.708-1.404 3.084-3.111 3.084h-1.952c-1.708 0-3.093-1.376-3.093-3.084v-3.778c-1.492 0.045-2.719 1.28-2.719 2.797v22.141c0 1.546 1.253 2.816 2.8 2.816h24.946c1.544 0 2.8-1.273 2.8-2.816v-22.141c0-1.518-1.226-2.752-2.719-2.797zM26.92 27.108c0 0.668-0.542 1.21-1.21 1.21h-20.927c-0.669 0-1.21-0.542-1.21-1.21v-11.437c0-0.668 0.542-1.211 1.21-1.211h20.927c0.669 0 1.21 0.542 1.21 1.211l0 11.437z"></path>
<path d="M5.854 8.331h1.924c0.584 0 1.058-0.475 1.058-1.062v-6.206c0-0.587-0.473-1.062-1.058-1.062h-1.924c-0.584 0-1.058 0.475-1.058 1.062v6.206c0 0.587 0.473 1.062 1.058 1.062z"></path>
<path d="M22.768 8.331h1.924c0.584 0 1.057-0.475 1.057-1.062v-6.206c0-0.587-0.474-1.062-1.057-1.062h-1.924c-0.584 0-1.058 0.475-1.058 1.062v6.206c0 0.587 0.474 1.062 1.058 1.062z"></path>
</symbol>
<symbol id="icon-close-rounded" viewBox="0 0 31 32">
<title>close-rounded</title>
<path d="M26.334 4.269c-6.001-5.795-15.767-5.453-21.769 0.762s-6.003 15.986-0.002 21.781c6.001 5.795 15.767 5.453 21.768-0.762s6.003-15.987 0.002-21.782zM6.584 24.721c-4.888-4.721-4.888-12.678-0-17.74 4.889-5.063 12.842-5.341 17.73-0.62s4.888 12.678-0.001 17.741c-4.888 5.062-12.841 5.339-17.729 0.619z"></path>
<path d="M21.309 19.368l-4.029-3.891 4.030-4.173c0.506-0.524 0.506-1.344 0.001-1.832s-1.325-0.46-1.832 0.064l-4.030 4.173-4.029-3.891c-0.506-0.488-1.325-0.46-1.831 0.064s-0.506 1.343-0 1.832l4.029 3.891-4.030 4.173c-0.506 0.524-0.506 1.344 0 1.832s1.325 0.46 1.831-0.064l4.030-4.173 4.029 3.891c0.506 0.488 1.325 0.46 1.831-0.064s0.506-1.344 0-1.832z"></path>
</symbol>
<symbol id="icon-picture" viewBox="0 0 42 32">
<title>picture</title>
<path d="M39.333 0h-36.666c-1.473 0-2.667 1.17-2.667 2.612v26.776c0 1.443 1.194 2.612 2.667 2.612h36.666c1.473 0 2.667-1.17 2.667-2.612v-26.776c0-1.443-1.194-2.612-2.667-2.612zM39.333 2.612v18.998l-5.255-4.68c-0.79-0.703-2.005-0.675-2.759 0.065l-5.319 5.209-10.487-12.271c-0.793-0.927-2.245-0.936-3.049-0.020l-9.797 11.153v-18.454h36.666zM28 9.469c0-1.984 1.641-3.592 3.667-3.592s3.667 1.608 3.667 3.592-1.641 3.592-3.667 3.592c-2.025 0-3.667-1.608-3.667-3.592z"></path>
</symbol>
<symbol id="icon-play-rounded" viewBox="0 0 32 32">
<title>play-rounded</title>
<path d="M29.855 7.969c-1.431-2.451-3.372-4.392-5.823-5.823s-5.128-2.146-8.031-2.146c-2.903 0-5.58 0.715-8.031 2.146s-4.392 3.371-5.823 5.823c-1.431 2.452-2.146 5.129-2.146 8.031s0.715 5.58 2.146 8.031c1.431 2.451 3.372 4.392 5.823 5.823s5.129 2.146 8.031 2.146 5.58-0.715 8.032-2.146c2.451-1.43 4.392-3.372 5.823-5.823s2.146-5.129 2.146-8.031c0-2.903-0.715-5.58-2.145-8.031zM24 17.146l-11.334 6.667c-0.208 0.125-0.431 0.187-0.667 0.187-0.222 0-0.444-0.056-0.667-0.167-0.444-0.264-0.667-0.652-0.667-1.166v-13.333c0-0.514 0.222-0.903 0.667-1.167 0.458-0.25 0.903-0.243 1.333 0.021l11.334 6.667c0.444 0.25 0.666 0.632 0.666 1.146s-0.222 0.895-0.666 1.146z"></path>
</symbol>
<symbol id="icon-plus-rounded" viewBox="0 0 32 32">
<title>plus-rounded</title>
<path d="M15.091 0c-8.321 0-15.091 6.77-15.091 15.091s6.77 15.090 15.091 15.090c8.321 0 15.091-6.77 15.091-15.090s-6.77-15.091-15.091-15.091zM15.091 27.38c-6.778 0-12.292-5.512-12.292-12.289 0-6.778 5.513-12.291 12.292-12.291s12.292 5.512 12.292 12.291c0 6.777-5.514 12.289-12.292 12.289z"></path>
<path d="M21.947 13.821h-5.587v-5.587c0-0.701-0.568-1.27-1.269-1.27s-1.27 0.568-1.27 1.27v5.587h-5.587c-0.701 0-1.269 0.568-1.269 1.27s0.568 1.269 1.269 1.269h5.586v5.587c0 0.701 0.568 1.269 1.27 1.269s1.27-0.568 1.27-1.269v-5.587h5.586c0.701 0 1.27-0.568 1.27-1.269s-0.568-1.27-1.269-1.27z"></path>
</symbol>
<symbol id="icon-arrow-down-rounded" viewBox="0 0 32 32">
<title>arrow-down-rounded</title>
<path d="M14.819 22.888l-9.034-9.034c-0.316-0.296-0.497-0.726-0.497-1.181 0-0.441 0.174-0.857 0.489-1.172 0.647-0.646 1.699-0.646 2.345 0l7.886 7.886 7.862-7.877c0.296-0.316 0.725-0.497 1.181-0.497 0.441 0 0.857 0.174 1.172 0.489s0.489 0.732 0.489 1.172c0 0.446-0.187 0.875-0.514 1.181l-9.034 9.034c-0.311 0.311-0.738 0.489-1.173 0.489-0.441 0-0.857-0.174-1.172-0.489zM32 16c0-8.837-7.163-16-16-16s-16 7.163-16 16c0 8.837 7.163 16 16 16s16-7.163 16-16z"></path>
</symbol>
<symbol id="icon-arrow-down" viewBox="0 0 60 32">
<title>arrow-down</title>
<path d="M59.114 0.865c-0.575-0.558-1.341-0.865-2.155-0.865s-1.58 0.307-2.156 0.865l-24.774 24.052-24.824-24.053c-1.189-1.152-3.122-1.152-4.311 0-0.576 0.557-0.892 1.299-0.892 2.088s0.317 1.531 0.892 2.088l26.93 26.094c0.584 0.566 1.329 0.865 2.155 0.865 0.803 0 1.588-0.315 2.155-0.865l26.909-26.073c0.605-0.552 0.945-1.293 0.957-2.088s-0.302-1.544-0.886-2.109z"></path>
</symbol>
<symbol id="icon-arrow-right-rounded" viewBox="0 0 32 32">
<title>arrow-right-rounded</title>
<path d="M22.888 17.181l-9.034 9.034c-0.296 0.316-0.726 0.497-1.181 0.497-0.441 0-0.857-0.174-1.172-0.489-0.646-0.647-0.646-1.699 0-2.345l7.886-7.886-7.877-7.862c-0.316-0.296-0.497-0.725-0.497-1.181 0-0.441 0.174-0.857 0.489-1.172s0.732-0.489 1.172-0.489c0.446 0 0.875 0.187 1.181 0.514l9.034 9.034c0.311 0.311 0.489 0.738 0.489 1.173 0 0.441-0.174 0.857-0.489 1.172zM16 0c-8.837 0-16 7.163-16 16s7.163 16 16 16c8.837 0 16-7.163 16-16s-7.163-16-16-16z"></path>
</symbol>
<symbol id="icon-cart" viewBox="0 0 32 32">
<title>cart</title>
<path d="M9.6 25.6c-1.76 0-3.2 1.44-3.2 3.2s1.44 3.2 3.2 3.2c1.76 0 3.2-1.44 3.2-3.2s-1.44-3.2-3.2-3.2zM0 0v3.2h3.2l5.76 12.16-2.24 3.84c-0.16 0.48-0.32 1.12-0.32 1.6 0 1.76 1.44 3.2 3.2 3.2h19.2v-3.2h-18.56c-0.16 0-0.32-0.16-0.32-0.32v-0.16l1.44-2.72h11.84c1.28 0 2.24-0.64 2.72-1.6l5.76-10.4c0.32-0.32 0.32-0.48 0.32-0.8 0-0.96-0.64-1.6-1.6-1.6h-23.68l-1.44-3.2h-5.28zM25.6 25.6c-1.76 0-3.2 1.44-3.2 3.2s1.44 3.2 3.2 3.2c1.76 0 3.2-1.44 3.2-3.2s-1.44-3.2-3.2-3.2z"></path>
</symbol>
<symbol id="icon-close" viewBox="0 0 32 32">
<title>close</title>
<path d="M30.226 25.304l-10.072-9.726 9.726-10.071c1.221-1.264 1.187-3.277-0.078-4.498s-3.278-1.187-4.499 0.078l-9.726 10.071-10.072-9.726c-1.264-1.221-3.276-1.186-4.498 0.079-1.221 1.264-1.186 3.276 0.079 4.497l10.071 9.725-9.727 10.072c-1.221 1.264-1.185 3.277 0.080 4.498s3.278 1.187 4.498-0.077l9.727-10.072 10.071 9.725c1.264 1.221 3.278 1.187 4.498-0.077 1.223-1.265 1.186-3.278-0.078-4.499z"></path>
</symbol>
<symbol id="icon-facebook-rounded" viewBox="0 0 32 32">
<title>facebook-rounded</title>
<path d="M16 0c-8.836 0-16 7.164-16 16s7.164 16 16 16c8.836 0 16-7.164 16-16 0-8.838-7.164-16-16-16zM20.136 15.998l-2.622 0.002-0.002 9.6h-3.598v-9.6h-2.4v-3.308l2.4-0.002-0.004-1.948c0-2.7 0.732-4.342 3.91-4.342h2.648v3.31h-1.656c-1.238 0-1.298 0.462-1.298 1.324l-0.004 1.656h2.976l-0.35 3.308z"></path>
</symbol>
<symbol id="icon-instagram-rounded" viewBox="0 0 32 32">
<title>instagram-rounded</title>
<path d="M15.888 19.069c1.753 0 3.182-1.427 3.182-3.181 0-0.692-0.227-1.332-0.602-1.854-0.578-0.801-1.517-1.327-2.579-1.327s-2.001 0.525-2.58 1.326c-0.376 0.522-0.601 1.162-0.602 1.854-0.002 1.754 1.426 3.181 3.18 3.181z"></path>
<path d="M22.834 11.997v-3.063l-3.064 0.010 0.010 3.064z"></path>
<path d="M15.889 0c-8.761 0-15.889 7.128-15.889 15.889s7.128 15.889 15.889 15.889c8.76 0 15.889-7.128 15.889-15.889s-7.127-15.889-15.889-15.889zM24.925 14.035v7.398c0 1.927-1.567 3.493-3.492 3.493h-11.087c-1.926 0-3.492-1.566-3.492-3.493v-11.087c0-1.926 1.566-3.492 3.492-3.492h11.087c1.926 0 3.493 1.566 3.493 3.492v3.689z"></path>
<path d="M20.831 15.889c0 2.724-2.217 4.943-4.943 4.943s-4.942-2.218-4.942-4.943c0-0.655 0.131-1.282 0.364-1.854h-2.698v7.398c0 0.956 0.776 1.731 1.732 1.731h11.087c0.954 0 1.732-0.774 1.732-1.731v-7.398h-2.699c0.235 0.572 0.367 1.199 0.367 1.854z"></path>
</symbol>
<symbol id="icon-love" viewBox="0 0 32 32">
<title>love</title>
<path d="M32 11.238c0 2.673-1.163 5.077-3.015 6.743h0.015l-10 9.905c-1 0.99-2 1.981-3 1.981s-2-0.991-3-1.981l-10-9.905h0.015c-1.852-1.666-3.015-4.070-3.015-6.743 0-5.029 4.116-9.105 9.192-9.105 2.699 0 5.126 1.152 6.808 2.987 1.682-1.835 4.109-2.987 6.808-2.987 5.077 0 9.192 4.076 9.192 9.105z"></path>
</symbol>
<symbol id="icon-mail-rounded" viewBox="0 0 32 32">
<title>mail-rounded</title>
<path d="M16 32c-1.472 0-2.891-0.192-4.256-0.576s-2.64-0.923-3.824-1.616-2.261-1.525-3.232-2.496c-0.971-0.971-1.803-2.048-2.496-3.232s-1.232-2.459-1.616-3.824c-0.384-1.365-0.576-2.784-0.576-4.256s0.192-2.891 0.576-4.256c0.384-1.365 0.923-2.64 1.616-3.824s1.525-2.261 2.496-3.232c0.971-0.971 2.048-1.803 3.232-2.496s2.459-1.232 3.824-1.616c1.365-0.384 2.784-0.576 4.256-0.576 2.197 0 4.272 0.421 6.224 1.264s3.648 1.984 5.088 3.424c1.44 1.44 2.581 3.136 3.424 5.088s1.264 4.027 1.264 6.224c0 1.472-0.192 2.891-0.576 4.256s-0.923 2.64-1.616 3.824c-0.693 1.184-1.525 2.261-2.496 3.232s-2.048 1.803-3.232 2.496c-1.184 0.693-2.459 1.232-3.824 1.616s-2.784 0.576-4.256 0.576zM23.712 9.408h-15.168c-0.149 0-0.277 0.048-0.384 0.144s-0.16 0.229-0.16 0.4v1.696c0 0.085 0.032 0.128 0.096 0.128l8.032 4.576c0.043 0 0.075-0.011 0.096-0.032l7.712-4.544c0.043-0.021 0.075-0.032 0.096-0.032s0.053-0.011 0.096-0.032c0.085 0 0.128-0.043 0.128-0.128v-1.632c0-0.171-0.053-0.304-0.16-0.4s-0.235-0.144-0.384-0.144zM12.832 16.224c0.021-0.021 0.032-0.053 0.032-0.096 0-0.064-0.021-0.096-0.064-0.096l-4.576-2.624c-0.064-0.021-0.117-0.021-0.16 0-0.043 0-0.064 0.032-0.064 0.096v6.88c0 0.064 0.032 0.107 0.096 0.128h0.064c0.043 0 0.064-0.011 0.064-0.032l4.608-4.256zM18.4 16.736c-0.021-0.064-0.075-0.075-0.16-0.032l-1.76 1.024c-0.213 0.128-0.437 0.128-0.672 0l-1.536-0.864c-0.064-0.043-0.117-0.043-0.16 0l-5.856 5.44c-0.021 0.021-0.032 0.064-0.032 0.128 0 0.021 0.021 0.053 0.064 0.096 0.128 0.043 0.213 0.064 0.256 0.064h15.008c0.043 0 0.085-0.021 0.128-0.064 0-0.085-0.011-0.139-0.032-0.16l-5.248-5.632zM24.16 13.28h-0.128l-4.352 2.592c-0.043 0-0.064 0.032-0.064 0.096-0.021 0.021-0.011 0.053 0.032 0.096l4.352 4.704c0.043 0.043 0.075 0.064 0.096 0.064h0.064c0.064-0.064 0.096-0.107 0.096-0.128v-7.296c0-0.043-0.032-0.085-0.096-0.128z"></path>
</symbol>
<symbol id="icon-message" viewBox="0 0 32 32">
<title>message</title>
<path d="M28.8 0h-25.6c-1.76 0-3.2 1.44-3.2 3.2v28.8l6.4-6.4h22.4c1.76 0 3.2-1.44 3.2-3.2v-19.2c0-1.76-1.44-3.2-3.2-3.2z"></path>
</symbol>
<symbol id="icon-play-rounded2" viewBox="0 0 32 32">
<title>play-rounded2</title>
<path d="M29.823 7.96c-1.429-2.449-3.368-4.387-5.817-5.817s-5.123-2.144-8.023-2.144c-2.9 0-5.574 0.714-8.023 2.144s-4.388 3.368-5.817 5.817c-1.429 2.449-2.144 5.123-2.144 8.023s0.715 5.574 2.144 8.023c1.429 2.448 3.368 4.387 5.817 5.817s5.123 2.144 8.023 2.144 5.574-0.715 8.023-2.144c2.449-1.429 4.387-3.368 5.816-5.817s2.143-5.123 2.143-8.023c0-2.9-0.714-5.574-2.143-8.023zM23.975 17.127l-11.321 6.66c-0.208 0.125-0.43 0.187-0.666 0.187-0.222 0-0.444-0.056-0.666-0.167-0.444-0.263-0.666-0.652-0.666-1.165v-13.319c0-0.513 0.222-0.902 0.666-1.165 0.458-0.25 0.902-0.243 1.332 0.021l11.321 6.66c0.444 0.25 0.666 0.631 0.666 1.145s-0.222 0.894-0.666 1.144z"></path>
</symbol>
<symbol id="icon-search" viewBox="0 0 32 32">
<title>search</title>
<path d="M30.573 29.147l-7.41-7.921c1.905-2.328 2.949-5.257 2.949-8.306 0-7.124-5.64-12.92-12.571-12.92s-12.571 5.796-12.571 12.92c0 7.124 5.64 12.92 12.571 12.92 2.602 0 5.082-0.807 7.202-2.338l7.467 7.981c0.312 0.333 0.732 0.517 1.182 0.517 0.426 0 0.83-0.167 1.136-0.47 0.652-0.644 0.672-1.713 0.045-2.383zM13.541 3.37c5.124 0 9.292 4.284 9.292 9.55s-4.168 9.55-9.292 9.55c-5.124 0-9.292-4.284-9.292-9.55s4.168-9.55 9.292-9.55z"></path>
</symbol>
<symbol id="icon-share" viewBox="0 0 32 32">
<title>share</title>
<path d="M26.521 20.855c-1.563 0-2.969 0.669-3.967 1.737l-11.663-5.809c0.040-0.271 0.068-0.548 0.068-0.833 0-0.277-0.026-0.547-0.064-0.813l11.646-5.744c0.999 1.076 2.411 1.751 3.981 1.751 3.027 0 5.479-2.495 5.479-5.573s-2.453-5.573-5.479-5.573-5.479 2.494-5.479 5.573c0 0.277 0.026 0.546 0.064 0.813l-11.645 5.744c-0.999-1.076-2.411-1.751-3.981-1.751-3.027 0-5.48 2.495-5.48 5.573s2.453 5.573 5.479 5.573c1.563 0 2.969-0.669 3.967-1.736l11.662 5.808c-0.041 0.271-0.068 0.548-0.068 0.833 0 3.079 2.453 5.573 5.479 5.573s5.479-2.494 5.479-5.573c0.001-3.078-2.452-5.573-5.479-5.573z"></path>
</symbol>
<symbol id="icon-star" viewBox="0 0 32 32">
<title>star</title>
<path d="M16.757 0.503l4.070 9.634 10.421 0.895c0.723 0.062 1.017 0.964 0.468 1.439l-7.904 6.848 2.369 10.187c0.164 0.708-0.603 1.265-1.224 0.889l-8.955-5.401-8.955 5.401c-0.623 0.375-1.388-0.182-1.224-0.889l2.369-10.187-7.906-6.85c-0.549-0.475-0.256-1.377 0.468-1.439l10.421-0.895 4.070-9.632c0.283-0.67 1.23-0.67 1.513 0z"></path>
</symbol>
<symbol id="icon-twitter-rounded" viewBox="0 0 32 32">
<title>twitter-rounded</title>
<path d="M15.889 0c-8.761 0-15.889 7.128-15.889 15.889s7.128 15.889 15.889 15.889c8.76 0 15.889-7.128 15.889-15.889s-7.127-15.889-15.889-15.889zM22.977 12.252c0.007 0.157 0.011 0.316 0.011 0.475 0 4.833-3.677 10.403-10.406 10.403-2.065 0-3.988-0.604-5.606-1.642 0.286 0.034 0.577 0.051 0.872 0.051 1.714 0 3.29-0.585 4.542-1.565-1.6-0.029-2.951-1.087-3.416-2.54 0.223 0.042 0.452 0.066 0.687 0.066 0.333 0 0.657-0.044 0.964-0.127-1.673-0.335-2.933-1.813-2.933-3.586 0-0.015 0-0.031 0.001-0.046 0.493 0.273 1.057 0.438 1.656 0.457-0.98-0.655-1.626-1.775-1.626-3.043 0-0.671 0.18-1.299 0.495-1.839 1.803 2.213 4.499 3.668 7.537 3.822-0.063-0.268-0.094-0.547-0.094-0.834 0-2.019 1.637-3.657 3.656-3.657 1.052 0 2.001 0.444 2.669 1.155 0.834-0.164 1.615-0.467 2.323-0.888-0.275 0.854-0.853 1.571-1.61 2.024 0.74-0.088 1.447-0.284 2.1-0.575-0.488 0.732-1.108 1.377-1.823 1.891z"></path>
</symbol>
<symbol id="icon-youtube-rounded" viewBox="0 0 32 32">
<title>youtube-rounded</title>
<path d="M8.384 17.137h1.265v6.848h1.197v-6.848h1.289v-1.122h-3.751z"></path>
<path d="M18.506 17.974c-0.396 0-0.765 0.216-1.112 0.644v-2.603h-1.076v7.97h1.076v-0.575c0.36 0.444 0.729 0.657 1.112 0.657 0.428 0 0.716-0.225 0.86-0.667 0.072-0.252 0.109-0.647 0.109-1.197v-2.365c0-0.562-0.037-0.955-0.109-1.193-0.143-0.445-0.432-0.671-0.86-0.671zM18.398 22.287c0 0.537-0.157 0.801-0.468 0.801-0.177 0-0.357-0.085-0.537-0.265v-3.619c0.18-0.178 0.36-0.262 0.537-0.262 0.311 0 0.468 0.275 0.468 0.81v2.535z"></path>
<path d="M14.31 22.585c-0.239 0.337-0.464 0.503-0.681 0.503-0.144 0-0.226-0.085-0.252-0.252-0.010-0.035-0.010-0.166-0.010-0.418v-4.372h-1.076v4.695c0 0.42 0.036 0.703 0.095 0.883 0.108 0.301 0.347 0.442 0.693 0.442 0.396 0 0.802-0.239 1.23-0.729v0.648h1.077v-5.939h-1.077v4.538z"></path>
<path d="M15.234 12.56c0.35 0 0.519-0.278 0.519-0.833v-2.524c0-0.555-0.168-0.832-0.519-0.832s-0.519 0.277-0.519 0.832v2.524c0 0.555 0.168 0.833 0.519 0.833z"></path>
<path d="M15.959 0c-8.814 0-15.959 7.145-15.959 15.959s7.145 15.959 15.959 15.959c8.814 0 15.959-7.145 15.959-15.959s-7.145-15.959-15.959-15.959zM17.734 7.465h1.084v4.419c0 0.255 0 0.387 0.013 0.423 0.024 0.168 0.109 0.255 0.255 0.255 0.217 0 0.446-0.168 0.687-0.509v-4.587h1.087v6.001h-1.087v-0.654c-0.433 0.496-0.846 0.737-1.242 0.737-0.35 0-0.592-0.142-0.701-0.446-0.060-0.182-0.096-0.469-0.096-0.892v-4.746zM13.627 9.421c0-0.642 0.109-1.111 0.34-1.414 0.301-0.41 0.724-0.615 1.266-0.615 0.545 0 0.968 0.205 1.269 0.615 0.228 0.303 0.337 0.772 0.337 1.414v2.102c0 0.638-0.109 1.111-0.337 1.411-0.301 0.409-0.724 0.614-1.269 0.614-0.542 0-0.966-0.205-1.266-0.614-0.231-0.3-0.34-0.774-0.34-1.411v-2.102zM10.719 5.413l0.856 3.162 0.823-3.162h1.22l-1.451 4.792v3.262h-1.206v-3.262c-0.109-0.578-0.351-1.425-0.738-2.548-0.254-0.747-0.519-1.497-0.773-2.244h1.269zM24.551 24.51c-0.218 0.947-0.992 1.645-1.925 1.75-2.208 0.247-4.442 0.248-6.668 0.247-2.225 0.001-4.46 0-6.667-0.247-0.932-0.104-1.707-0.803-1.924-1.75-0.311-1.348-0.311-2.821-0.311-4.209s0.004-2.86 0.314-4.209c0.218-0.947 0.992-1.646 1.924-1.75 2.208-0.247 4.443-0.248 6.668-0.247 2.225-0.001 4.459 0 6.667 0.247 0.932 0.104 1.707 0.803 1.925 1.75 0.31 1.349 0.308 2.821 0.308 4.209s-0.001 2.861-0.312 4.209z"></path>
<path d="M21.933 17.974c-0.551 0-0.978 0.202-1.289 0.609-0.228 0.3-0.332 0.765-0.332 1.399v2.080c0 0.631 0.117 1.099 0.346 1.396 0.311 0.406 0.739 0.608 1.302 0.608s1.003-0.213 1.301-0.644c0.131-0.191 0.215-0.407 0.251-0.645 0.010-0.108 0.023-0.346 0.023-0.694v-0.156h-1.097c0 0.431-0.014 0.67-0.023 0.729-0.061 0.288-0.216 0.431-0.481 0.431-0.37 0-0.551-0.274-0.551-0.823v-1.053h2.152v-1.23c0-0.634-0.107-1.099-0.333-1.399-0.301-0.406-0.729-0.608-1.269-0.608zM22.459 20.316h-1.076v-0.55c0-0.549 0.181-0.824 0.54-0.824 0.356 0 0.536 0.275 0.536 0.824v0.55z"></path>
</symbol>
</defs>
</svg>
