<?xml version="1.0" encoding="UTF-8"?>
<svg width="24px" height="19px" viewBox="0 0 24 19" version="1.1" xmlns="http://www.w3.org/2000/svg" xmlns:xlink="http://www.w3.org/1999/xlink">
    <!-- Generator: Sketch 50 (54983) - http://www.bohemiancoding.com/sketch -->
    <title>tarjeta-de-credito</title>
    <desc>Created with Sketch.</desc>
    <defs></defs>
    <g id="Checkout" stroke="none" stroke-width="1" fill="none" fill-rule="evenodd">
        <g id="18-nenemi-checkot" transform="translate(-39.000000, -119.000000)" fill="#D31F37">
            <g id="tarjeta-de-credito" transform="translate(39.000000, 119.000000)">
                <path d="M23.4118183,0.58130731 C23.0207839,0.19357932 22.5495865,0 21.9997603,0 L2.00023972,0 C1.45022174,0 0.979024332,0.19357932 0.587222822,0.58130731 C0.195613089,0.9690353 0,1.43457458 0,1.97944343 L0,17.0205566 C0,17.5654254 0.195613089,18.0309647 0.587222822,18.4186927 C0.979024332,18.8064207 1.45022174,19 2.00023972,19 L21.9997603,19 C22.5495865,19 23.0207839,18.8064207 23.4118183,18.4186927 C23.8036198,18.0309647 24,17.5654254 24,17.0205566 L24,1.97944343 C24,1.43457458 23.8036198,0.9690353 23.4118183,0.58130731 Z M22.3998082,17.0213157 C22.3998082,17.1279741 22.3601103,17.2207783 22.2807144,17.2993487 C22.2020856,17.3779192 22.1083064,17.4164453 21.9997603,17.4164453 L2.00023972,17.4164453 C1.89150186,17.4164453 1.79791442,17.37716 1.71851852,17.2993487 C1.63988973,17.2207783 1.60019178,17.1279741 1.60019178,17.0205566 L1.60019178,9.50037957 L22.3998082,9.50037957 L22.3998082,17.0213157 Z M22.3998082,4.74990511 L1.60019178,4.74990511 L1.60019178,1.9786843 C1.60019178,1.87202589 1.63912262,1.77922169 1.71851852,1.70065126 C1.79791442,1.62208083 1.89150186,1.58355475 2.00023972,1.58355475 L21.9997603,1.58355475 C22.1083064,1.58355475 22.2020856,1.62208083 22.2807144,1.70065126 C22.3601103,1.77922169 22.3998082,1.87202589 22.3998082,1.9786843 L22.3998082,4.74990511 Z" id="Fill-1"></path>
                <polygon id="Fill-2" points="3 16 6 16 6 15 3 15"></polygon>
                <polygon id="Fill-3" points="8 16 13 16 13 15 8 15"></polygon>
            </g>
        </g>
    </g>
</svg>