<?xml version="1.0" encoding="UTF-8"?>
<svg width="114px" height="47px" viewBox="0 0 114 47" version="1.1" xmlns="http://www.w3.org/2000/svg" xmlns:xlink="http://www.w3.org/1999/xlink">
    <!-- Generator: Sketch 48.2 (47327) - http://www.bohemiancoding.com/sketch -->
    <title>Group</title>
    <desc>Created with Sketch.</desc>
    <defs>
        <polygon id="path-1" points="0.142854237 0.0658972414 1.85942373 0.0658972414 1.85942373 14.9590628 0.142854237 14.9590628"></polygon>
        <polygon id="path-3" points="0 0.230609076 45.7913332 0.230609076 45.7913332 46.6758621 0 46.6758621"></polygon>
    </defs>
    <g id="footer-02" stroke="none" stroke-width="1" fill="none" fill-rule="evenodd" transform="translate(-30.000000, -50.000000)">
        <g id="Group">
            <g transform="translate(30.000000, 50.000000)">
                <path d="M58.0261932,30.3090683 L58.0261932,24.2544959 C58.0261932,22.7466062 57.5515153,21.4474614 55.2702271,21.4474614 C52.989261,21.4474614 52.5149051,22.7466062 52.5149051,24.2544959 L52.5149051,30.3090683 C52.5149051,30.7265579 52.1761254,31.0513441 51.7693966,31.0513441 C51.3855322,31.0513441 51.0689729,30.7265579 51.0689729,30.3090683 L51.0689729,24.2544959 C51.0689729,22.0503579 51.7693966,20.0325993 55.2702271,20.0325993 C58.7488373,20.0325993 59.4714814,22.0503579 59.4714814,24.2544959 L59.4714814,30.3090683 C59.4714814,30.7265579 59.1555661,31.0513441 58.7488373,31.0513441 C58.3649729,31.0513441 58.0261932,30.7265579 58.0261932,30.3090683" id="Fill-1" fill="#FFFFFF"></path>
                <path d="M66.1572271,21.2385869 C64.1918542,21.2385869 63.1078881,22.5377317 62.9723119,24.6024903 L69.0484475,24.6024903 C69.0484475,22.9322076 68.4836,21.2385869 66.1572271,21.2385869 M66.1572271,19.8934145 C69.7710915,19.8934145 70.4711932,22.83918 70.4711932,24.4170834 C70.4711932,25.0896697 70.4711932,25.9016352 69.5678881,25.9016352 L62.9723119,25.9016352 C62.9723119,28.1981524 64.2598034,29.6827041 66.3829729,29.6827041 C67.6930068,29.6827041 68.4610576,29.172511 69.0935322,28.6853317 C69.2287864,28.5923041 69.319278,28.5459524 69.499939,28.5459524 C69.861261,28.5459524 70.1549559,28.8477248 70.1549559,29.2188628 C70.1549559,29.4739593 70.041922,29.6133386 69.9066678,29.7523938 C69.5678881,30.1001938 68.3931085,31.0512145 66.3829729,31.0512145 C63.3787186,31.0512145 61.5041593,29.3579179 61.5041593,25.4604834 C61.5041593,21.8881593 63.220922,19.8934145 66.1572271,19.8934145" id="Fill-3" fill="#FFFFFF"></path>
                <path d="M79.4380017,30.3090683 L79.4380017,24.2544959 C79.4380017,22.7466062 78.9636458,21.4474614 76.6820356,21.4474614 C74.4010695,21.4474614 73.9267136,22.7466062 73.9267136,24.2544959 L73.9267136,30.3090683 C73.9267136,30.7265579 73.5879339,31.0513441 73.1812051,31.0513441 C72.7973407,31.0513441 72.4811034,30.7265579 72.4811034,30.3090683 L72.4811034,24.2544959 C72.4811034,22.0503579 73.1812051,20.0325993 76.6820356,20.0325993 C80.1606458,20.0325993 80.8832898,22.0503579 80.8832898,24.2544959 L80.8832898,30.3090683 C80.8832898,30.7265579 80.5673746,31.0513441 80.1606458,31.0513441 C79.7767814,31.0513441 79.4380017,30.7265579 79.4380017,30.3090683" id="Fill-5" fill="#FFFFFF"></path>
                <path d="M87.5690356,21.2385869 C85.6036627,21.2385869 84.5196966,22.5377317 84.3841203,24.6024903 L90.4602559,24.6024903 C90.4602559,22.9322076 89.8957305,21.2385869 87.5690356,21.2385869 M87.5690356,19.8934145 C91.1829,19.8934145 91.8830017,22.83918 91.8830017,24.4170834 C91.8830017,25.0896697 91.8830017,25.9016352 90.9796966,25.9016352 L84.3841203,25.9016352 C84.3841203,28.1981524 85.6716119,29.6827041 87.7947814,29.6827041 C89.1051373,29.6827041 89.8728661,29.172511 90.5053407,28.6853317 C90.6409169,28.5923041 90.7310864,28.5459524 90.9120695,28.5459524 C91.2730695,28.5459524 91.5667644,28.8477248 91.5667644,29.2188628 C91.5667644,29.4739593 91.4537305,29.6133386 91.3184763,29.7523938 C90.9796966,30.1001938 89.8049169,31.0512145 87.7947814,31.0512145 C84.7905271,31.0512145 82.9159678,29.3579179 82.9159678,25.4604834 C82.9159678,21.8881593 84.6327305,19.8934145 87.5690356,19.8934145" id="Fill-7" fill="#FFFFFF"></path>
                <g id="Group-11" transform="translate(112.067797, 15.976434)">
                    <mask id="mask-2" fill="white">
                        <use xlink:href="#path-1"></use>
                    </mask>
                    <g id="Clip-10"></g>
                    <path d="M1.72404068,14.2167869 C1.72404068,14.6342766 1.40812542,14.9590628 1.00139661,14.9590628 C0.594667797,14.9590628 0.278430508,14.6342766 0.278430508,14.2167869 L0.278430508,4.79831103 C0.278430508,4.38049724 0.594667797,4.05603517 1.00139661,4.05603517 C1.40812542,4.05603517 1.72404068,4.38049724 1.72404068,4.79831103 L1.72404068,14.2167869 Z M0.142854237,0.993904138 C0.142854237,0.320993793 0.459091525,0.0658972414 1.00139661,0.0658972414 C1.54337966,0.0658972414 1.85961695,0.320993793 1.85961695,0.993904138 C1.85961695,1.5507731 1.54337966,1.87523517 1.00139661,1.87523517 C0.459091525,1.87523517 0.142854237,1.5507731 0.142854237,0.993904138 Z" id="Fill-9" fill="#FFFFFF" mask="url(#mask-2)"></path>
                </g>
                <path d="M105.430581,19.9629421 C103.612378,19.9629421 102.550954,20.5078179 101.949073,21.33988 C101.344615,20.5078179 100.282547,19.9629421 98.4759373,19.9629421 C94.9751068,19.9629421 94.2746831,21.9810248 94.2746831,24.1848386 L94.2746831,30.239411 C94.2746831,30.6569007 94.5912424,30.9816869 94.9751068,30.9816869 C95.3818356,30.9816869 95.7206153,30.6569007 95.7206153,30.239411 L95.7206153,24.1848386 C95.7206153,22.676949 96.1946492,21.3778041 98.4759373,21.3778041 C100.700547,21.3778041 101.206785,22.6134179 101.230615,24.073011 C101.229971,24.1102869 101.229327,24.1472386 101.229327,24.1848386 L101.229327,30.239411 C101.229327,30.6569007 101.545564,30.9816869 101.929429,30.9816869 C101.933937,30.9816869 101.937802,30.9807145 101.94231,30.9803903 C101.946497,30.9807145 101.950039,30.9816869 101.954225,30.9816869 C102.360954,30.9816869 102.677192,30.6569007 102.677192,30.239411 L102.677192,24.1848386 C102.677192,24.1478869 102.676225,24.1115834 102.675903,24.0746317 C102.699734,22.6143903 103.205327,21.3778041 105.430581,21.3778041 C107.711869,21.3778041 108.186225,22.676949 108.186225,24.1848386 L108.186225,30.239411 C108.186225,30.6569007 108.525005,30.9816869 108.908869,30.9816869 C109.315276,30.9816869 109.631836,30.6569007 109.631836,30.239411 L109.631836,24.1848386 C109.631836,21.9810248 108.908869,19.9629421 105.430581,19.9629421" id="Fill-12" fill="#FFFFFF"></path>
                <path d="M18.2115966,23.1982924 C18.2267322,19.8557821 20.191461,17.3667269 22.8192576,17.3608924 C26.5947831,17.352789 29.8176983,20.40552 29.7648847,23.93992 C29.7217322,26.842251 26.9725288,29.1659959 23.6607322,29.0995476 C20.0600712,29.0272648 18.1938847,27.006589 18.2115966,23.1982924 M31.135139,25.8925269 C32.2406814,22.4375407 29.9909525,17.96152 26.3619525,16.3962579 C21.5156644,14.3062166 17.1955797,16.8040234 16.5679356,22.0067614 C16.2124102,24.9502579 16.8130034,26.607251 18.8724102,29.0382855 C19.7792576,29.8356648 21.1569186,30.2463476 22.3333085,30.4738924 C26.1980373,31.2213545 30.0775797,29.1964648 31.135139,25.8925269" id="Fill-14" fill="#FFFFFF"></path>
                <path d="M21.4366695,23.7680621 C21.5033305,22.2498 22.1873305,21.2187172 23.6696525,21.1603724 C24.9919237,21.3425379 26.2301441,21.523731 26.1122797,23.1113586 C25.9953814,24.6856966 24.8653644,25.4966897 23.4574322,25.6098138 C22.3499576,25.6986276 21.3761271,25.147269 21.4366695,23.7680621 M27.7984492,23.0640345 C27.8129407,20.9376897 26.1731441,19.234669 24.0416017,19.1617379 C21.7216695,19.0826483 19.7814153,21.2663655 19.7495339,23.8922069 C19.7163644,26.5835241 21.631178,27.0700552 23.5308559,27.2596759 C25.6266525,27.4693931 27.7842797,25.1809793 27.7984492,23.0640345" id="Fill-16" fill="#FFFFFF"></path>
                <path d="M34.1293458,28.7399814 C32.4412441,32.6487607 29.0167356,33.4458159 25.4176847,33.824409 C21.8260407,34.3475676 16.5801085,33.1489055 14.1706508,30.3097814 C11.1023119,26.6940228 12.1147864,22.6163676 13.6611932,18.8152021 C16.6335661,11.5107538 21.8241085,9.63010552 29.020278,12.9003331 C34.1470576,15.2302366 36.6566678,22.8873469 34.1293458,28.7399814 M25.7261932,10.0521331 C18.0910915,8.42496069 12.9169729,12.7771607 10.9026508,22.5197745 C9.60968475,28.7730434 13.0860407,34.1420641 19.7589051,35.2295469 C28.0606169,36.5824986 35.3752949,34.3381676 36.3201424,26.6778159 C38.0311085,18.3922021 33.8147186,11.7752503 25.7261932,10.0521331" id="Fill-18" fill="#FFFFFF"></path>
                <path d="M23.6635339,31.4147676 C21.9889576,31.2834917 20.0107034,31.0345538 18.1780085,29.824871 C13.3681102,26.9611124 14.2137712,19.2265331 19.1814661,15.7884021 C22.3908559,13.5667607 25.7590085,13.5810228 28.6621441,15.8272986 C31.7591441,18.2236503 33.1477542,22.9774572 31.8857034,26.8612779 C31.0435847,29.4524366 27.2055847,31.6925538 23.6635339,31.4147676 M28.8505339,32.0046986 C33.5812119,29.566209 34.3286525,27.2829814 33.5815339,20.7814228 C33.0878559,16.4830297 29.1509915,13.1119952 24.9919237,12.6753814 C20.3275847,12.1852848 16.7446356,14.3819676 14.8320763,18.9036917 C11.7241271,26.2538434 15.1769746,32.2251124 22.9660085,32.96674 C23.9060254,33.0562021 26.9895,32.9732228 28.395178,32.2396986 C29.526161,31.6419883 28.8505339,32.0046986 28.8505339,32.0046986" id="Fill-20" fill="#FFFFFF"></path>
                <g id="Group-24" transform="translate(0.000000, 0.093676)">
                    <mask id="mask-4" fill="white">
                        <use xlink:href="#path-3"></use>
                    </mask>
                    <g id="Clip-23"></g>
                    <path d="M23.7264271,39.000989 C14.3678,39.5471614 6.52691864,34.0857614 6.52691864,24.2916097 C6.52691864,14.4974579 14.4003254,5.43488552 23.7737661,5.43488552 C33.1475288,5.43488552 40.4715458,14.4974579 40.4715458,24.2916097 C40.4715458,34.0857614 32.7234102,38.4758855 23.7264271,39.000989 M25.9787322,0.258402759 C7.78800339,1.17020276 0.866850847,7.37355448 0.0263423729,23.7253407 C-0.588098305,35.6788993 9.63164746,46.4373614 21.5836136,46.6684717 C34.9332068,46.9261614 46.0002237,40.4975338 45.7767322,22.0864993 C46.1789525,9.30314759 38.2385627,-0.356486897 25.9787322,0.258402759" id="Fill-22" fill="#FFFFFF" mask="url(#mask-4)"></path>
                </g>
            </g>
        </g>
    </g>
</svg>