<?xml version="1.0" encoding="UTF-8"?>
<svg width="152px" height="39px" viewBox="0 0 152 39" version="1.1" xmlns="http://www.w3.org/2000/svg" xmlns:xlink="http://www.w3.org/1999/xlink">
    <!-- Generator: Sketch 50 (54983) - http://www.bohemiancoding.com/sketch -->
    <title>paypal</title>
    <desc>Created with Sketch.</desc>
    <defs></defs>
    <g id="Checkout" stroke="none" stroke-width="1" fill="none" fill-rule="evenodd">
        <g id="18-nenemi-checkot" transform="translate(-114.000000, -969.000000)">
            <g id="paypal" transform="translate(114.000000, 969.000000)">
                <g>
                    <path d="M118.463492,18.2 C117.980952,21.1023256 115.809524,21.1023256 113.638095,21.1023256 L112.190476,21.1023256 L113.155556,15.5395349 C113.155556,15.2976744 113.396825,15.055814 113.879365,15.055814 L114.361905,15.055814 C115.809524,15.055814 117.257143,15.055814 117.980952,16.0232558 C118.463492,16.2651163 118.463492,16.9906977 118.463492,18.2 M117.498413,10.2186047 L109.295238,10.2186047 C108.812698,10.2186047 108.330159,10.7023256 108.088889,11.1860465 L104.711111,32.4697674 C104.711111,32.9534884 104.952381,33.1953488 105.434921,33.1953488 L109.777778,33.1953488 C110.260317,33.1953488 110.501587,32.9534884 110.501587,32.4697674 L111.466667,26.4232558 C111.466667,25.9395349 111.949206,25.455814 112.673016,25.455814 L115.326984,25.455814 C120.87619,25.455814 124.012698,22.7953488 124.736508,17.4744186 C125.219048,15.2976744 124.736508,13.3627907 123.771429,12.1534884 C122.32381,10.944186 120.152381,10.2186047 117.498413,10.2186047" id="Fill-1" fill="#008DB5"></path>
                    <path d="M59.352381,18.2 C58.8698413,21.1023256 56.6984127,21.1023256 54.5269841,21.1023256 L53.3206349,21.1023256 L54.2857143,15.5395349 C54.2857143,15.2976744 54.5269841,15.055814 55.0095238,15.055814 L55.4920635,15.055814 C56.9396825,15.055814 58.3873016,15.055814 59.1111111,16.0232558 C59.352381,16.2651163 59.5936508,16.9906977 59.352381,18.2 M58.3873016,10.2186047 L50.184127,10.2186047 C49.7015873,10.2186047 49.2190476,10.7023256 48.9777778,11.1860465 L45.6,32.4697674 C45.6,32.9534884 45.8412698,33.1953488 46.3238095,33.1953488 L50.184127,33.1953488 C50.6666667,33.1953488 51.1492063,32.7116279 51.3904762,32.227907 L52.3555556,26.4232558 C52.3555556,25.9395349 52.8380952,25.455814 53.5619048,25.455814 L56.215873,25.455814 C61.7650794,25.455814 64.9015873,22.7953488 65.6253968,17.4744186 C66.1079365,15.2976744 65.6253968,13.3627907 64.6603175,12.1534884 C63.2126984,10.944186 61.2825397,10.2186047 58.3873016,10.2186047" id="Fill-2" fill="#32386D"></path>
                    <path d="M77.6888889,25.6976744 C77.2063492,27.8744186 75.5174603,29.5674419 73.1047619,29.5674419 C71.8984127,29.5674419 70.9333333,29.0837209 70.4507937,28.6 C69.968254,27.8744186 69.7269841,26.9069767 69.7269841,25.6976744 C69.968254,23.5209302 71.8984127,21.827907 74.0698413,21.827907 C75.2761905,21.827907 76,22.3116279 76.7238095,22.7953488 C77.447619,23.5209302 77.6888889,24.7302326 77.6888889,25.6976744 M83.2380952,17.9581395 L79.3777778,17.9581395 C79.1365079,17.9581395 78.6539683,18.2 78.6539683,18.4418605 L78.4126984,19.6511628 L78.1714286,19.1674419 C77.2063492,17.9581395 75.5174603,17.4744186 73.5873016,17.4744186 C69.2444444,17.4744186 65.384127,20.8604651 64.6603175,25.455814 C64.1777778,27.8744186 64.9015873,30.0511628 66.1079365,31.5023256 C67.3142857,32.9534884 69.0031746,33.4372093 71.1746032,33.4372093 C74.7936508,33.4372093 76.7238095,31.2604651 76.7238095,31.2604651 L76.4825397,32.4697674 C76.4825397,32.9534884 76.7238095,33.1953488 77.2063492,33.1953488 L80.8253968,33.1953488 C81.3079365,33.1953488 81.7904762,32.7116279 82.031746,32.227907 L84.2031746,18.6837209 C83.9619048,18.4418605 83.4793651,17.9581395 83.2380952,17.9581395" id="Fill-3" fill="#32386D"></path>
                    <path d="M136.55873,25.6976744 C136.07619,27.8744186 134.387302,29.5674419 131.974603,29.5674419 C130.768254,29.5674419 129.803175,29.0837209 129.320635,28.6 C128.838095,27.8744186 128.596825,26.9069767 128.596825,25.6976744 C128.838095,23.5209302 130.768254,21.827907 132.939683,21.827907 C134.146032,21.827907 134.869841,22.3116279 135.593651,22.7953488 C136.55873,23.5209302 136.8,24.7302326 136.55873,25.6976744 M142.107937,17.9581395 L138.247619,17.9581395 C138.006349,17.9581395 137.52381,18.2 137.52381,18.4418605 L137.28254,19.6511628 L137.04127,19.1674419 C136.07619,17.9581395 134.387302,17.4744186 132.457143,17.4744186 C128.114286,17.4744186 124.253968,20.8604651 123.530159,25.455814 C123.047619,27.8744186 123.771429,30.0511628 124.977778,31.5023256 C126.184127,32.9534884 127.873016,33.4372093 130.044444,33.4372093 C133.663492,33.4372093 135.593651,31.2604651 135.593651,31.2604651 L135.352381,32.4697674 C135.352381,32.9534884 135.593651,33.1953488 136.07619,33.1953488 L139.695238,33.1953488 C140.177778,33.1953488 140.660317,32.7116279 140.901587,32.227907 L143.073016,18.6837209 C142.831746,18.4418605 142.590476,17.9581395 142.107937,17.9581395" id="Fill-4" fill="#008DB5"></path>
                    <path d="M104.228571,17.9581395 L100.126984,17.9581395 C99.6444444,17.9581395 99.4031746,18.2 99.1619048,18.4418605 L93.8539683,26.6651163 L91.4412698,18.9255814 C91.2,18.4418605 90.9587302,18.2 90.2349206,18.2 L86.3746032,18.2 C85.8920635,18.2 85.6507937,18.6837209 85.6507937,19.1674419 L89.9936508,31.9860465 L85.8920635,37.7906977 C85.6507937,38.2744186 85.8920635,39 86.3746032,39 L90.2349206,39 C90.7174603,39 90.9587302,38.7581395 91.2,38.5162791 L104.469841,19.4093023 C105.193651,18.6837209 104.711111,17.9581395 104.228571,17.9581395" id="Fill-5" fill="#32386D"></path>
                    <path d="M146.692063,10.944186 L143.314286,32.7116279 C143.314286,33.1953488 143.555556,33.4372093 144.038095,33.4372093 L147.415873,33.4372093 C147.898413,33.4372093 148.380952,32.9534884 148.622222,32.4697674 L152,11.1860465 C152,10.7023256 151.75873,10.4604651 151.27619,10.4604651 L147.415873,10.4604651 C147.174603,10.2186047 146.933333,10.4604651 146.692063,10.944186" id="Fill-6" fill="#008DB5"></path>
                    <path d="M27.7460317,2.9627907 C26.0571429,1.02790698 22.9206349,0.0604651163 18.5777778,0.0604651163 L6.51428571,0.0604651163 C5.79047619,0.0604651163 5.06666667,0.786046512 4.82539683,1.51162791 L0,33.1953488 C0,33.9209302 0.482539683,34.4046512 0.965079365,34.4046512 L8.44444444,34.4046512 L10.3746032,22.5534884 L10.3746032,23.0372093 C10.615873,22.3116279 11.3396825,21.5860465 12.0634921,21.5860465 L15.6825397,21.5860465 C22.6793651,21.5860465 27.9873016,18.6837209 29.6761905,10.7023256 C29.6761905,10.4604651 29.6761905,10.2186047 29.6761905,9.97674419 C29.4349206,9.97674419 29.4349206,9.97674419 29.6761905,9.97674419 C29.9174603,6.83255814 29.4349206,4.89767442 27.7460317,2.9627907" id="Fill-7" fill="#32386D"></path>
                    <path d="M29.4349206,9.97674419 C29.4349206,10.2186047 29.4349206,10.4604651 29.4349206,10.7023256 C27.7460317,18.9255814 22.4380952,21.5860465 15.4412698,21.5860465 L11.8222222,21.5860465 C11.0984127,21.5860465 10.3746032,22.3116279 10.1333333,23.0372093 L7.72063492,37.7906977 C7.72063492,38.2744186 7.96190476,38.7581395 8.68571429,38.7581395 L14.9587302,38.7581395 C15.6825397,38.7581395 16.4063492,38.2744186 16.4063492,37.5488372 L16.4063492,37.3069767 L17.6126984,29.8093023 L17.6126984,29.3255814 C17.6126984,28.6 18.3365079,28.1162791 19.0603175,28.1162791 L20.0253968,28.1162791 C26.0571429,28.1162791 30.8825397,25.6976744 32.0888889,18.4418605 C32.5714286,15.5395349 32.3301587,12.8790698 30.8825397,11.1860465 C30.6412698,10.7023256 30.1587302,10.2186047 29.4349206,9.97674419" id="Fill-8" fill="#008DB5"></path>
                    <path d="M27.7460317,9.25116279 C27.5047619,9.25116279 27.2634921,9.00930233 27.0222222,9.00930233 C26.7809524,9.00930233 26.5396825,9.00930233 26.2984127,8.76744186 C25.3333333,8.5255814 24.368254,8.5255814 23.1619048,8.5255814 L13.752381,8.5255814 C13.5111111,8.5255814 13.2698413,8.5255814 13.0285714,8.76744186 C12.5460317,9.00930233 12.3047619,9.49302326 12.3047619,9.97674419 L10.3746032,22.5534884 L10.3746032,23.0372093 C10.615873,22.3116279 11.3396825,21.5860465 12.0634921,21.5860465 L15.6825397,21.5860465 C22.6793651,21.5860465 27.9873016,18.6837209 29.6761905,10.7023256 C29.6761905,10.4604651 29.6761905,10.2186047 29.9174603,9.97674419 C29.4349206,9.73488372 29.1936508,9.49302326 28.7111111,9.49302326 C27.9873016,9.25116279 27.9873016,9.25116279 27.7460317,9.25116279" id="Fill-9" fill="#312F57"></path>
                </g>
            </g>
        </g>
    </g>
</svg>