<svg aria-hidden="true" style="position: absolute; width: 0; height: 0; overflow: hidden;" version="1.1" xmlns="http://www.w3.org/2000/svg" xmlns:xlink="http://www.w3.org/1999/xlink">
<defs>
<symbol id="icon-pencil" viewBox="0 0 32 32">
<title>pencil</title>
<path d="M30.873 9.304l-1.363 1.363-8.177-8.174 1.363-1.363c1.505-1.505 3.946-1.505 5.452 0l2.725 2.725c1.503 1.504 1.503 3.944 0 5.449zM10.968 26.685c-0.402 0.402-0.402 1.054 0 1.456 0.402 0.404 1.054 0.404 1.456 0l16.020-16.017-1.458-1.457-16.018 16.019zM3.857 19.575c-0.402 0.403-0.402 1.054 0 1.456s1.054 0.402 1.456 0l16.020-16.020-1.456-1.456-16.020 16.020zM21.972 7.111l-16.035 16.035c-0.805 0.804-0.803 2.11 0 2.915 0.806 0.805 2.11 0.809 2.917-0.002l16.035-16.032-2.917-2.916zM8.768 29.681c-0.436-0.436-0.647-0.988-0.725-1.557-0.185 0.029-0.372 0.055-0.563 0.055-0.975 0-1.89-0.38-2.58-1.068-0.69-0.69-1.069-1.601-1.069-2.573 0-0.177 0.027-0.35 0.052-0.522-0.59-0.080-1.135-0.338-1.563-0.764-0.041-0.041-0.055-0.096-0.093-0.14l-2.227 8.889 8.889-2.219c-0.039-0.036-0.084-0.062-0.121-0.099z"></path>
</symbol>
<symbol id="icon-arrow-right" viewBox="0 0 19 32">
<title>arrow-right</title>
<path d="M0.504 0.48c-0.336 0.32-0.504 0.719-0.504 1.146s0.168 0.853 0.504 1.146l13.93 13.216-13.93 13.242c-0.673 0.639-0.673 1.652 0 2.291 0.336 0.32 0.757 0.48 1.205 0.48s0.897-0.16 1.205-0.48l15.107-14.361c0.336-0.32 0.505-0.719 0.505-1.146s-0.196-0.853-0.505-1.146l-15.107-14.361c-0.308-0.32-0.757-0.506-1.205-0.506s-0.869 0.16-1.205 0.48z"></path>
</symbol>
<symbol id="icon-arrow-up" viewBox="0 0 57 32">
<title>arrow-up</title>
<path d="M4.069 30.925c0.732 0 1.421-0.285 1.939-0.803l22.275-22.319 22.32 22.32c1.069 1.069 2.807 1.069 3.876 0 0.518-0.517 0.802-1.206 0.802-1.938s-0.285-1.421-0.802-1.938l-24.214-24.214c-0.525-0.525-1.195-0.802-1.938-0.802-0.722 0-1.428 0.292-1.938 0.802l-24.194 24.195c-0.544 0.512-0.85 1.2-0.861 1.938s0.271 1.433 0.796 1.957c0.517 0.518 1.206 0.802 1.938 0.802z"></path>
</symbol>
<symbol id="icon-calendar" viewBox="0 0 32 32">
<title>calendar</title>
<path d="M10.855 17.098c0-0.381-0.309-0.689-0.69-0.689h-2.407c-0.381 0-0.689 0.308-0.689 0.689v2.407c0 0.381 0.309 0.69 0.689 0.69h2.407c0.381 0 0.69-0.309 0.69-0.69v-2.407z"></path>
<path d="M17.166 17.098c0-0.381-0.309-0.689-0.689-0.689h-2.408c-0.381 0-0.69 0.308-0.69 0.689v2.407c0 0.381 0.309 0.69 0.69 0.69h2.408c0.38 0 0.689-0.309 0.689-0.69v-2.407z"></path>
<path d="M23.225 17.098c0-0.381-0.309-0.689-0.689-0.689h-2.407c-0.381 0-0.69 0.308-0.69 0.689v2.407c0 0.381 0.309 0.69 0.69 0.69h2.407c0.381 0 0.689-0.309 0.689-0.69v-2.407z"></path>
<path d="M10.855 23.41c0-0.381-0.309-0.69-0.69-0.69h-2.407c-0.381 0-0.689 0.308-0.689 0.69v2.407c0 0.381 0.309 0.69 0.689 0.69h2.407c0.381 0 0.69-0.309 0.69-0.69v-2.407z"></path>
<path d="M17.166 23.41c0-0.381-0.309-0.69-0.689-0.69h-2.408c-0.381 0-0.69 0.308-0.69 0.69v2.407c0 0.381 0.309 0.69 0.69 0.69h2.408c0.38 0 0.689-0.309 0.689-0.69v-2.407z"></path>
<path d="M23.225 23.41c0-0.381-0.309-0.69-0.689-0.69h-2.408c-0.381 0-0.69 0.308-0.69 0.69v2.407c0 0.381 0.309 0.69 0.69 0.69h2.408c0.38 0 0.689-0.309 0.689-0.69v-2.407z"></path>
<path d="M27.827 3.548v3.778c0 1.708-1.386 3.084-3.093 3.084h-1.951c-1.708 0-3.112-1.376-3.112-3.084v-3.792h-8.795v3.792c0 1.708-1.404 3.084-3.111 3.084h-1.952c-1.708 0-3.093-1.376-3.093-3.084v-3.778c-1.492 0.045-2.719 1.28-2.719 2.797v22.141c0 1.546 1.253 2.816 2.8 2.816h24.946c1.544 0 2.8-1.273 2.8-2.816v-22.141c0-1.518-1.226-2.752-2.719-2.797zM26.92 27.108c0 0.668-0.542 1.21-1.21 1.21h-20.927c-0.669 0-1.21-0.542-1.21-1.21v-11.437c0-0.668 0.542-1.211 1.21-1.211h20.927c0.669 0 1.21 0.542 1.21 1.211l0 11.437z"></path>
<path d="M5.854 8.331h1.924c0.584 0 1.058-0.475 1.058-1.062v-6.206c0-0.587-0.473-1.062-1.058-1.062h-1.924c-0.584 0-1.058 0.475-1.058 1.062v6.206c0 0.587 0.473 1.062 1.058 1.062z"></path>
<path d="M22.768 8.331h1.924c0.584 0 1.057-0.475 1.057-1.062v-6.206c0-0.587-0.474-1.062-1.057-1.062h-1.924c-0.584 0-1.058 0.475-1.058 1.062v6.206c0 0.587 0.474 1.062 1.058 1.062z"></path>
</symbol>
<symbol id="icon-close-rounded" viewBox="0 0 31 32">
<title>close-rounded</title>
<path d="M26.334 4.269c-6.001-5.795-15.767-5.453-21.769 0.762s-6.003 15.986-0.002 21.781c6.001 5.795 15.767 5.453 21.768-0.762s6.003-15.987 0.002-21.782zM6.584 24.721c-4.888-4.721-4.888-12.678-0-17.74 4.889-5.063 12.842-5.341 17.73-0.62s4.888 12.678-0.001 17.741c-4.888 5.062-12.841 5.339-17.729 0.619z"></path>
<path d="M21.309 19.368l-4.029-3.891 4.030-4.173c0.506-0.524 0.506-1.344 0.001-1.832s-1.325-0.46-1.832 0.064l-4.030 4.173-4.029-3.891c-0.506-0.488-1.325-0.46-1.831 0.064s-0.506 1.343-0 1.832l4.029 3.891-4.030 4.173c-0.506 0.524-0.506 1.344 0 1.832s1.325 0.46 1.831-0.064l4.030-4.173 4.029 3.891c0.506 0.488 1.325 0.46 1.831-0.064s0.506-1.344 0-1.832z"></path>
</symbol>
<symbol id="icon-picture" viewBox="0 0 42 32">
<title>picture</title>
<path d="M39.333 0h-36.666c-1.473 0-2.667 1.17-2.667 2.612v26.776c0 1.443 1.194 2.612 2.667 2.612h36.666c1.473 0 2.667-1.17 2.667-2.612v-26.776c0-1.443-1.194-2.612-2.667-2.612zM39.333 2.612v18.998l-5.255-4.68c-0.79-0.703-2.005-0.675-2.759 0.065l-5.319 5.209-10.487-12.271c-0.793-0.927-2.245-0.936-3.049-0.020l-9.797 11.153v-18.454h36.666zM28 9.469c0-1.984 1.641-3.592 3.667-3.592s3.667 1.608 3.667 3.592-1.641 3.592-3.667 3.592c-2.025 0-3.667-1.608-3.667-3.592z"></path>
</symbol>
<symbol id="icon-play-rounded" viewBox="0 0 32 32">
<title>play-rounded</title>
<path d="M29.855 7.969c-1.431-2.451-3.372-4.392-5.823-5.823s-5.128-2.146-8.031-2.146c-2.903 0-5.58 0.715-8.031 2.146s-4.392 3.371-5.823 5.823c-1.431 2.452-2.146 5.129-2.146 8.031s0.715 5.58 2.146 8.031c1.431 2.451 3.372 4.392 5.823 5.823s5.129 2.146 8.031 2.146 5.58-0.715 8.032-2.146c2.451-1.43 4.392-3.372 5.823-5.823s2.146-5.129 2.146-8.031c0-2.903-0.715-5.58-2.145-8.031zM24 17.146l-11.334 6.667c-0.208 0.125-0.431 0.187-0.667 0.187-0.222 0-0.444-0.056-0.667-0.167-0.444-0.264-0.667-0.652-0.667-1.166v-13.333c0-0.514 0.222-0.903 0.667-1.167 0.458-0.25 0.903-0.243 1.333 0.021l11.334 6.667c0.444 0.25 0.666 0.632 0.666 1.146s-0.222 0.895-0.666 1.146z"></path>
</symbol>
<symbol id="icon-plus-rounded" viewBox="0 0 32 32">
<title>plus-rounded</title>
<path d="M15.091 0c-8.321 0-15.091 6.77-15.091 15.091s6.77 15.090 15.091 15.090c8.321 0 15.091-6.77 15.091-15.090s-6.77-15.091-15.091-15.091zM15.091 27.38c-6.778 0-12.292-5.512-12.292-12.289 0-6.778 5.513-12.291 12.292-12.291s12.292 5.512 12.292 12.291c0 6.777-5.514 12.289-12.292 12.289z"></path>
<path d="M21.947 13.821h-5.587v-5.587c0-0.701-0.568-1.27-1.269-1.27s-1.27 0.568-1.27 1.27v5.587h-5.587c-0.701 0-1.269 0.568-1.269 1.27s0.568 1.269 1.269 1.269h5.586v5.587c0 0.701 0.568 1.269 1.27 1.269s1.27-0.568 1.27-1.269v-5.587h5.586c0.701 0 1.27-0.568 1.27-1.269s-0.568-1.27-1.269-1.27z"></path>
</symbol>
<symbol id="icon-arrow-down-rounded" viewBox="0 0 32 32">
<title>arrow-down-rounded</title>
<path d="M14.819 22.888l-9.034-9.034c-0.316-0.296-0.497-0.726-0.497-1.181 0-0.441 0.174-0.857 0.489-1.172 0.647-0.646 1.699-0.646 2.345 0l7.886 7.886 7.862-7.877c0.296-0.316 0.725-0.497 1.181-0.497 0.441 0 0.857 0.174 1.172 0.489s0.489 0.732 0.489 1.172c0 0.446-0.187 0.875-0.514 1.181l-9.034 9.034c-0.311 0.311-0.738 0.489-1.173 0.489-0.441 0-0.857-0.174-1.172-0.489zM32 16c0-8.837-7.163-16-16-16s-16 7.163-16 16c0 8.837 7.163 16 16 16s16-7.163 16-16z"></path>
</symbol>
<symbol id="icon-arrow-down" viewBox="0 0 60 32">
<title>arrow-down</title>
<path d="M59.114 0.865c-0.575-0.558-1.341-0.865-2.155-0.865s-1.58 0.307-2.156 0.865l-24.774 24.052-24.824-24.053c-1.189-1.152-3.122-1.152-4.311 0-0.576 0.557-0.892 1.299-0.892 2.088s0.317 1.531 0.892 2.088l26.93 26.094c0.584 0.566 1.329 0.865 2.155 0.865 0.803 0 1.588-0.315 2.155-0.865l26.909-26.073c0.605-0.552 0.945-1.293 0.957-2.088s-0.302-1.544-0.886-2.109z"></path>
</symbol>
<symbol id="icon-arrow-right-rounded" viewBox="0 0 32 32">
<title>arrow-right-rounded</title>
<path d="M22.888 17.181l-9.034 9.034c-0.296 0.316-0.726 0.497-1.181 0.497-0.441 0-0.857-0.174-1.172-0.489-0.646-0.647-0.646-1.699 0-2.345l7.886-7.886-7.877-7.862c-0.316-0.296-0.497-0.725-0.497-1.181 0-0.441 0.174-0.857 0.489-1.172s0.732-0.489 1.172-0.489c0.446 0 0.875 0.187 1.181 0.514l9.034 9.034c0.311 0.311 0.489 0.738 0.489 1.173 0 0.441-0.174 0.857-0.489 1.172zM16 0c-8.837 0-16 7.163-16 16s7.163 16 16 16c8.837 0 16-7.163 16-16s-7.163-16-16-16z"></path>
</symbol>
<symbol id="icon-cart" viewBox="0 0 32 32">
<title>cart</title>
<path d="M9.6 25.6c-1.76 0-3.2 1.44-3.2 3.2s1.44 3.2 3.2 3.2c1.76 0 3.2-1.44 3.2-3.2s-1.44-3.2-3.2-3.2zM0 0v3.2h3.2l5.76 12.16-2.24 3.84c-0.16 0.48-0.32 1.12-0.32 1.6 0 1.76 1.44 3.2 3.2 3.2h19.2v-3.2h-18.56c-0.16 0-0.32-0.16-0.32-0.32v-0.16l1.44-2.72h11.84c1.28 0 2.24-0.64 2.72-1.6l5.76-10.4c0.32-0.32 0.32-0.48 0.32-0.8 0-0.96-0.64-1.6-1.6-1.6h-23.68l-1.44-3.2h-5.28zM25.6 25.6c-1.76 0-3.2 1.44-3.2 3.2s1.44 3.2 3.2 3.2c1.76 0 3.2-1.44 3.2-3.2s-1.44-3.2-3.2-3.2z"></path>
</symbol>
<symbol id="icon-close" viewBox="0 0 32 32">
<title>close</title>
<path d="M30.226 25.304l-10.072-9.726 9.726-10.071c1.221-1.264 1.187-3.277-0.078-4.498s-3.278-1.187-4.499 0.078l-9.726 10.071-10.072-9.726c-1.264-1.221-3.276-1.186-4.498 0.079-1.221 1.264-1.186 3.276 0.079 4.497l10.071 9.725-9.727 10.072c-1.221 1.264-1.185 3.277 0.080 4.498s3.278 1.187 4.498-0.077l9.727-10.072 10.071 9.725c1.264 1.221 3.278 1.187 4.498-0.077 1.223-1.265 1.186-3.278-0.078-4.499z"></path>
</symbol>
<symbol id="icon-facebook-rounded" viewBox="0 0 32 32">
<title>facebook-rounded</title>
<path d="M16 0c-8.836 0-16 7.164-16 16s7.164 16 16 16c8.836 0 16-7.164 16-16 0-8.838-7.164-16-16-16zM20.136 15.998l-2.622 0.002-0.002 9.6h-3.598v-9.6h-2.4v-3.308l2.4-0.002-0.004-1.948c0-2.7 0.732-4.342 3.91-4.342h2.648v3.31h-1.656c-1.238 0-1.298 0.462-1.298 1.324l-0.004 1.656h2.976l-0.35 3.308z"></path>
</symbol>
<symbol id="icon-instagram-rounded" viewBox="0 0 32 32">
<title>instagram-rounded</title>
<path d="M15.888 19.069c1.753 0 3.182-1.427 3.182-3.181 0-0.692-0.227-1.332-0.602-1.854-0.578-0.801-1.517-1.327-2.579-1.327s-2.001 0.525-2.58 1.326c-0.376 0.522-0.601 1.162-0.602 1.854-0.002 1.754 1.426 3.181 3.18 3.181z"></path>
<path d="M22.834 11.997v-3.063l-3.064 0.010 0.010 3.064z"></path>
<path d="M15.889 0c-8.761 0-15.889 7.128-15.889 15.889s7.128 15.889 15.889 15.889c8.76 0 15.889-7.128 15.889-15.889s-7.127-15.889-15.889-15.889zM24.925 14.035v7.398c0 1.927-1.567 3.493-3.492 3.493h-11.087c-1.926 0-3.492-1.566-3.492-3.493v-11.087c0-1.926 1.566-3.492 3.492-3.492h11.087c1.926 0 3.493 1.566 3.493 3.492v3.689z"></path>
<path d="M20.831 15.889c0 2.724-2.217 4.943-4.943 4.943s-4.942-2.218-4.942-4.943c0-0.655 0.131-1.282 0.364-1.854h-2.698v7.398c0 0.956 0.776 1.731 1.732 1.731h11.087c0.954 0 1.732-0.774 1.732-1.731v-7.398h-2.699c0.235 0.572 0.367 1.199 0.367 1.854z"></path>
</symbol>
<symbol id="icon-love" viewBox="0 0 32 32">
<title>love</title>
<path d="M32 11.238c0 2.673-1.163 5.077-3.015 6.743h0.015l-10 9.905c-1 0.99-2 1.981-3 1.981s-2-0.991-3-1.981l-10-9.905h0.015c-1.852-1.666-3.015-4.070-3.015-6.743 0-5.029 4.116-9.105 9.192-9.105 2.699 0 5.126 1.152 6.808 2.987 1.682-1.835 4.109-2.987 6.808-2.987 5.077 0 9.192 4.076 9.192 9.105z"></path>
</symbol>
<symbol id="icon-mail-rounded" viewBox="0 0 32 32">
<title>mail-rounded</title>
<path d="M16 32c-1.472 0-2.891-0.192-4.256-0.576s-2.64-0.923-3.824-1.616-2.261-1.525-3.232-2.496c-0.971-0.971-1.803-2.048-2.496-3.232s-1.232-2.459-1.616-3.824c-0.384-1.365-0.576-2.784-0.576-4.256s0.192-2.891 0.576-4.256c0.384-1.365 0.923-2.64 1.616-3.824s1.525-2.261 2.496-3.232c0.971-0.971 2.048-1.803 3.232-2.496s2.459-1.232 3.824-1.616c1.365-0.384 2.784-0.576 4.256-0.576 2.197 0 4.272 0.421 6.224 1.264s3.648 1.984 5.088 3.424c1.44 1.44 2.581 3.136 3.424 5.088s1.264 4.027 1.264 6.224c0 1.472-0.192 2.891-0.576 4.256s-0.923 2.64-1.616 3.824c-0.693 1.184-1.525 2.261-2.496 3.232s-2.048 1.803-3.232 2.496c-1.184 0.693-2.459 1.232-3.824 1.616s-2.784 0.576-4.256 0.576zM23.712 9.408h-15.168c-0.149 0-0.277 0.048-0.384 0.144s-0.16 0.229-0.16 0.4v1.696c0 0.085 0.032 0.128 0.096 0.128l8.032 4.576c0.043 0 0.075-0.011 0.096-0.032l7.712-4.544c0.043-0.021 0.075-0.032 0.096-0.032s0.053-0.011 0.096-0.032c0.085 0 0.128-0.043 0.128-0.128v-1.632c0-0.171-0.053-0.304-0.16-0.4s-0.235-0.144-0.384-0.144zM12.832 16.224c0.021-0.021 0.032-0.053 0.032-0.096 0-0.064-0.021-0.096-0.064-0.096l-4.576-2.624c-0.064-0.021-0.117-0.021-0.16 0-0.043 0-0.064 0.032-0.064 0.096v6.88c0 0.064 0.032 0.107 0.096 0.128h0.064c0.043 0 0.064-0.011 0.064-0.032l4.608-4.256zM18.4 16.736c-0.021-0.064-0.075-0.075-0.16-0.032l-1.76 1.024c-0.213 0.128-0.437 0.128-0.672 0l-1.536-0.864c-0.064-0.043-0.117-0.043-0.16 0l-5.856 5.44c-0.021 0.021-0.032 0.064-0.032 0.128 0 0.021 0.021 0.053 0.064 0.096 0.128 0.043 0.213 0.064 0.256 0.064h15.008c0.043 0 0.085-0.021 0.128-0.064 0-0.085-0.011-0.139-0.032-0.16l-5.248-5.632zM24.16 13.28h-0.128l-4.352 2.592c-0.043 0-0.064 0.032-0.064 0.096-0.021 0.021-0.011 0.053 0.032 0.096l4.352 4.704c0.043 0.043 0.075 0.064 0.096 0.064h0.064c0.064-0.064 0.096-0.107 0.096-0.128v-7.296c0-0.043-0.032-0.085-0.096-0.128z"></path>
</symbol>
<symbol id="icon-message" viewBox="0 0 32 32">
<title>message</title>
<path d="M28.8 0h-25.6c-1.76 0-3.2 1.44-3.2 3.2v28.8l6.4-6.4h22.4c1.76 0 3.2-1.44 3.2-3.2v-19.2c0-1.76-1.44-3.2-3.2-3.2z"></path>
</symbol>
<symbol id="icon-play-rounded2" viewBox="0 0 32 32">
<title>play-rounded2</title>
<path d="M29.823 7.96c-1.429-2.449-3.368-4.387-5.817-5.817s-5.123-2.144-8.023-2.144c-2.9 0-5.574 0.714-8.023 2.144s-4.388 3.368-5.817 5.817c-1.429 2.449-2.144 5.123-2.144 8.023s0.715 5.574 2.144 8.023c1.429 2.448 3.368 4.387 5.817 5.817s5.123 2.144 8.023 2.144 5.574-0.715 8.023-2.144c2.449-1.429 4.387-3.368 5.816-5.817s2.143-5.123 2.143-8.023c0-2.9-0.714-5.574-2.143-8.023zM23.975 17.127l-11.321 6.66c-0.208 0.125-0.43 0.187-0.666 0.187-0.222 0-0.444-0.056-0.666-0.167-0.444-0.263-0.666-0.652-0.666-1.165v-13.319c0-0.513 0.222-0.902 0.666-1.165 0.458-0.25 0.902-0.243 1.332 0.021l11.321 6.66c0.444 0.25 0.666 0.631 0.666 1.145s-0.222 0.894-0.666 1.144z"></path>
</symbol>
<symbol id="icon-search" viewBox="0 0 32 32">
<title>search</title>
<path d="M30.573 29.147l-7.41-7.921c1.905-2.328 2.949-5.257 2.949-8.306 0-7.124-5.64-12.92-12.571-12.92s-12.571 5.796-12.571 12.92c0 7.124 5.64 12.92 12.571 12.92 2.602 0 5.082-0.807 7.202-2.338l7.467 7.981c0.312 0.333 0.732 0.517 1.182 0.517 0.426 0 0.83-0.167 1.136-0.47 0.652-0.644 0.672-1.713 0.045-2.383zM13.541 3.37c5.124 0 9.292 4.284 9.292 9.55s-4.168 9.55-9.292 9.55c-5.124 0-9.292-4.284-9.292-9.55s4.168-9.55 9.292-9.55z"></path>
</symbol>
<symbol id="icon-share" viewBox="0 0 32 32">
<title>share</title>
<path d="M26.521 20.855c-1.563 0-2.969 0.669-3.967 1.737l-11.663-5.809c0.040-0.271 0.068-0.548 0.068-0.833 0-0.277-0.026-0.547-0.064-0.813l11.646-5.744c0.999 1.076 2.411 1.751 3.981 1.751 3.027 0 5.479-2.495 5.479-5.573s-2.453-5.573-5.479-5.573-5.479 2.494-5.479 5.573c0 0.277 0.026 0.546 0.064 0.813l-11.645 5.744c-0.999-1.076-2.411-1.751-3.981-1.751-3.027 0-5.48 2.495-5.48 5.573s2.453 5.573 5.479 5.573c1.563 0 2.969-0.669 3.967-1.736l11.662 5.808c-0.041 0.271-0.068 0.548-0.068 0.833 0 3.079 2.453 5.573 5.479 5.573s5.479-2.494 5.479-5.573c0.001-3.078-2.452-5.573-5.479-5.573z"></path>
</symbol>
<symbol id="icon-star" viewBox="0 0 32 32">
<title>star</title>
<path d="M16.757 0.503l4.070 9.634 10.421 0.895c0.723 0.062 1.017 0.964 0.468 1.439l-7.904 6.848 2.369 10.187c0.164 0.708-0.603 1.265-1.224 0.889l-8.955-5.401-8.955 5.401c-0.623 0.375-1.388-0.182-1.224-0.889l2.369-10.187-7.906-6.85c-0.549-0.475-0.256-1.377 0.468-1.439l10.421-0.895 4.070-9.632c0.283-0.67 1.23-0.67 1.513 0z"></path>
</symbol>
<symbol id="icon-twitter-rounded" viewBox="0 0 32 32">
<title>twitter-rounded</title>
<path d="M15.889 0c-8.761 0-15.889 7.128-15.889 15.889s7.128 15.889 15.889 15.889c8.76 0 15.889-7.128 15.889-15.889s-7.127-15.889-15.889-15.889zM22.977 12.252c0.007 0.157 0.011 0.316 0.011 0.475 0 4.833-3.677 10.403-10.406 10.403-2.065 0-3.988-0.604-5.606-1.642 0.286 0.034 0.577 0.051 0.872 0.051 1.714 0 3.29-0.585 4.542-1.565-1.6-0.029-2.951-1.087-3.416-2.54 0.223 0.042 0.452 0.066 0.687 0.066 0.333 0 0.657-0.044 0.964-0.127-1.673-0.335-2.933-1.813-2.933-3.586 0-0.015 0-0.031 0.001-0.046 0.493 0.273 1.057 0.438 1.656 0.457-0.98-0.655-1.626-1.775-1.626-3.043 0-0.671 0.18-1.299 0.495-1.839 1.803 2.213 4.499 3.668 7.537 3.822-0.063-0.268-0.094-0.547-0.094-0.834 0-2.019 1.637-3.657 3.656-3.657 1.052 0 2.001 0.444 2.669 1.155 0.834-0.164 1.615-0.467 2.323-0.888-0.275 0.854-0.853 1.571-1.61 2.024 0.74-0.088 1.447-0.284 2.1-0.575-0.488 0.732-1.108 1.377-1.823 1.891z"></path>
</symbol>
<symbol id="icon-youtube-rounded" viewBox="0 0 32 32">
<title>youtube-rounded</title>
<path d="M8.384 17.137h1.265v6.848h1.197v-6.848h1.289v-1.122h-3.751z"></path>
<path d="M18.506 17.974c-0.396 0-0.765 0.216-1.112 0.644v-2.603h-1.076v7.97h1.076v-0.575c0.36 0.444 0.729 0.657 1.112 0.657 0.428 0 0.716-0.225 0.86-0.667 0.072-0.252 0.109-0.647 0.109-1.197v-2.365c0-0.562-0.037-0.955-0.109-1.193-0.143-0.445-0.432-0.671-0.86-0.671zM18.398 22.287c0 0.537-0.157 0.801-0.468 0.801-0.177 0-0.357-0.085-0.537-0.265v-3.619c0.18-0.178 0.36-0.262 0.537-0.262 0.311 0 0.468 0.275 0.468 0.81v2.535z"></path>
<path d="M14.31 22.585c-0.239 0.337-0.464 0.503-0.681 0.503-0.144 0-0.226-0.085-0.252-0.252-0.010-0.035-0.010-0.166-0.010-0.418v-4.372h-1.076v4.695c0 0.42 0.036 0.703 0.095 0.883 0.108 0.301 0.347 0.442 0.693 0.442 0.396 0 0.802-0.239 1.23-0.729v0.648h1.077v-5.939h-1.077v4.538z"></path>
<path d="M15.234 12.56c0.35 0 0.519-0.278 0.519-0.833v-2.524c0-0.555-0.168-0.832-0.519-0.832s-0.519 0.277-0.519 0.832v2.524c0 0.555 0.168 0.833 0.519 0.833z"></path>
<path d="M15.959 0c-8.814 0-15.959 7.145-15.959 15.959s7.145 15.959 15.959 15.959c8.814 0 15.959-7.145 15.959-15.959s-7.145-15.959-15.959-15.959zM17.734 7.465h1.084v4.419c0 0.255 0 0.387 0.013 0.423 0.024 0.168 0.109 0.255 0.255 0.255 0.217 0 0.446-0.168 0.687-0.509v-4.587h1.087v6.001h-1.087v-0.654c-0.433 0.496-0.846 0.737-1.242 0.737-0.35 0-0.592-0.142-0.701-0.446-0.060-0.182-0.096-0.469-0.096-0.892v-4.746zM13.627 9.421c0-0.642 0.109-1.111 0.34-1.414 0.301-0.41 0.724-0.615 1.266-0.615 0.545 0 0.968 0.205 1.269 0.615 0.228 0.303 0.337 0.772 0.337 1.414v2.102c0 0.638-0.109 1.111-0.337 1.411-0.301 0.409-0.724 0.614-1.269 0.614-0.542 0-0.966-0.205-1.266-0.614-0.231-0.3-0.34-0.774-0.34-1.411v-2.102zM10.719 5.413l0.856 3.162 0.823-3.162h1.22l-1.451 4.792v3.262h-1.206v-3.262c-0.109-0.578-0.351-1.425-0.738-2.548-0.254-0.747-0.519-1.497-0.773-2.244h1.269zM24.551 24.51c-0.218 0.947-0.992 1.645-1.925 1.75-2.208 0.247-4.442 0.248-6.668 0.247-2.225 0.001-4.46 0-6.667-0.247-0.932-0.104-1.707-0.803-1.924-1.75-0.311-1.348-0.311-2.821-0.311-4.209s0.004-2.86 0.314-4.209c0.218-0.947 0.992-1.646 1.924-1.75 2.208-0.247 4.443-0.248 6.668-0.247 2.225-0.001 4.459 0 6.667 0.247 0.932 0.104 1.707 0.803 1.925 1.75 0.31 1.349 0.308 2.821 0.308 4.209s-0.001 2.861-0.312 4.209z"></path>
<path d="M21.933 17.974c-0.551 0-0.978 0.202-1.289 0.609-0.228 0.3-0.332 0.765-0.332 1.399v2.080c0 0.631 0.117 1.099 0.346 1.396 0.311 0.406 0.739 0.608 1.302 0.608s1.003-0.213 1.301-0.644c0.131-0.191 0.215-0.407 0.251-0.645 0.010-0.108 0.023-0.346 0.023-0.694v-0.156h-1.097c0 0.431-0.014 0.67-0.023 0.729-0.061 0.288-0.216 0.431-0.481 0.431-0.37 0-0.551-0.274-0.551-0.823v-1.053h2.152v-1.23c0-0.634-0.107-1.099-0.333-1.399-0.301-0.406-0.729-0.608-1.269-0.608zM22.459 20.316h-1.076v-0.55c0-0.549 0.181-0.824 0.54-0.824 0.356 0 0.536 0.275 0.536 0.824v0.55z"></path>
</symbol>
</defs>
</svg>
